<svg width="36" height="36" viewBox="0 0 36 36" fill="none" xmlns="http://www.w3.org/2000/svg">
<g clip-path="url(#clip0_1_21)">
<path d="M27.4922 5.69531H29.6016V1.05469C29.6016 0.472219 29.1293 0 28.5469 0C27.9644 0 27.4922 0.472219 27.4922 1.05469V5.69531ZM23.2734 5.69531H25.3828V1.05469C25.3828 0.472219 24.9106 0 24.3281 0C23.7457 0 23.2734 0.472219 23.2734 1.05469V5.69531ZM19.0547 5.69531H21.1641V1.05469C21.1641 0.472219 20.6918 0 20.1094 0C19.5269 0 19.0547 0.472219 19.0547 1.05469V5.69531Z" fill="#FFA370"/>
<path d="M14.8359 5.69531H16.9453V1.05469C16.9453 0.472219 16.4731 0 15.8906 0C15.3082 0 14.8359 0.472219 14.8359 1.05469V5.69531ZM10.6172 5.69531H12.7266V1.05469C12.7266 0.472219 12.2543 0 11.6719 0C11.0894 0 10.6172 0.472219 10.6172 1.05469V5.69531ZM6.39844 5.69531H8.50781V1.05469C8.50781 0.472219 8.03559 0 7.45312 0C6.87066 0 6.39844 0.472219 6.39844 1.05469V5.69531Z" fill="#FFA370"/>
<path d="M28.5469 36C29.1293 36 29.6016 35.5278 29.6016 34.9453V30.3047H27.4922V34.9453C27.4922 35.5278 27.9644 36 28.5469 36ZM24.3281 36C24.9106 36 25.3828 35.5278 25.3828 34.9453V30.3047H23.2734V34.9453C23.2734 35.5278 23.7457 36 24.3281 36ZM20.1094 36C20.6918 36 21.1641 35.5278 21.1641 34.9453V30.3047H19.0547V34.9453C19.0547 35.5278 19.5269 36 20.1094 36Z" fill="#FFA370"/>
<path d="M15.8906 36C16.4731 36 16.9453 35.5278 16.9453 34.9453V30.3047H14.8359V34.9453C14.8359 35.5278 15.3082 36 15.8906 36ZM11.6719 36C12.2543 36 12.7266 35.5278 12.7266 34.9453V30.3047H10.6172V34.9453C10.6172 35.5278 11.0894 36 11.6719 36ZM7.45312 36C8.03559 36 8.50781 35.5278 8.50781 34.9453V30.3047H6.39844V34.9453C6.39844 35.5278 6.87066 36 7.45312 36ZM1.05469 8.50781H5.69531V6.39844H1.05469C0.472219 6.39844 0 6.87066 0 7.45312C0 8.03559 0.472219 8.50781 1.05469 8.50781ZM1.05469 12.7266H5.69531V10.6172H1.05469C0.472219 10.6172 0 11.0894 0 11.6719C0 12.2543 0.472219 12.7266 1.05469 12.7266ZM1.05469 16.9453H5.69531V14.8359H1.05469C0.472219 14.8359 0 15.3082 0 15.8906C0 16.4731 0.472219 16.9453 1.05469 16.9453ZM1.05469 21.1641H5.69531V19.0547H1.05469C0.472219 19.0547 0 19.5269 0 20.1094C0 20.6918 0.472219 21.1641 1.05469 21.1641ZM1.05469 25.3828H5.69531V23.2734H1.05469C0.472219 23.2734 0 23.7457 0 24.3281C0 24.9106 0.472219 25.3828 1.05469 25.3828ZM1.05469 29.6016H5.69531V27.4922H1.05469C0.472219 27.4922 0 27.9644 0 28.5469C0 29.1293 0.472219 29.6016 1.05469 29.6016Z" fill="#FFA370"/>
<path d="M30.3047 6.39844V8.50781H34.9453C35.5278 8.50781 36 8.03559 36 7.45312C36 6.87066 35.5278 6.39844 34.9453 6.39844H30.3047ZM30.3047 12.7266H34.9453C35.5278 12.7266 36 12.2543 36 11.6719C36 11.0894 35.5278 10.6172 34.9453 10.6172H30.3047V12.7266ZM30.3047 16.9453H34.9453C35.5278 16.9453 36 16.4731 36 15.8906C36 15.3082 35.5278 14.8359 34.9453 14.8359H30.3047V16.9453ZM30.3047 21.1641H34.9453C35.5278 21.1641 36 20.6918 36 20.1094C36 19.5269 35.5278 19.0547 34.9453 19.0547H30.3047V21.1641ZM30.3047 25.3828H34.9453C35.5278 25.3828 36 24.9106 36 24.3281C36 23.7457 35.5278 23.2734 34.9453 23.2734H30.3047V25.3828ZM30.3047 29.6016H34.9453C35.5278 29.6016 36 29.1293 36 28.5469C36 27.9644 35.5278 27.4922 34.9453 27.4922H30.3047V29.6016Z" fill="#FFA370"/>
<path d="M31.3594 3.58594H4.64062C4.05816 3.58594 3.58594 4.05816 3.58594 4.64062V31.3594C3.58594 31.9418 4.05816 32.4141 4.64062 32.4141H31.3594C31.9418 32.4141 32.4141 31.9418 32.4141 31.3594V4.64062C32.4141 4.05816 31.9418 3.58594 31.3594 3.58594Z" fill="#FFA370"/>
<path d="M27.1406 7.80469H8.85938C8.27691 7.80469 7.80469 8.27691 7.80469 8.85938V27.1406C7.80469 27.7231 8.27691 28.1953 8.85938 28.1953H27.1406C27.7231 28.1953 28.1953 27.7231 28.1953 27.1406V8.85938C28.1953 8.27691 27.7231 7.80469 27.1406 7.80469Z" fill="#FF6C19"/>
<path d="M17.4115 13.5274C17.3219 13.2914 17.1626 13.0884 16.9547 12.9453C16.7468 12.8023 16.5003 12.726 16.2479 12.7266H16.2467C15.995 12.7262 15.7492 12.8024 15.5418 12.9449C15.3344 13.0874 15.1752 13.2896 15.0853 13.5247L11.917 21.8434C11.7097 22.3877 11.9829 22.997 12.5273 23.2043C13.0716 23.4117 13.681 23.1384 13.8882 22.5941L14.4186 21.2016H18.0531L18.5775 22.5911C18.7369 23.0135 19.1382 23.2737 19.5644 23.2737C19.6882 23.2737 19.814 23.2518 19.9367 23.2055C20.4816 22.9999 20.7567 22.3914 20.551 21.8464L17.4115 13.5274ZM15.222 19.0923L16.2442 16.4084L17.2571 19.0923H15.222Z" fill="#F9F9F9"/>
<path d="M18.5772 22.5911C18.7366 23.0135 19.1379 23.2737 19.5641 23.2737C19.6879 23.2737 19.8137 23.2518 19.9363 23.2055C20.4813 22.9999 20.7564 22.3914 20.5507 21.8464L18 15.0875V21.2016H18.0528L18.5772 22.5911ZM23.0977 12.7266C22.5152 12.7266 22.043 13.1988 22.043 13.7813V22.2188C22.043 22.8012 22.5152 23.2734 23.0977 23.2734C23.6801 23.2734 24.1523 22.8012 24.1523 22.2188V13.7813C24.1523 13.1988 23.6801 12.7266 23.0977 12.7266Z" fill="#F9F9F9"/>
</g>
<defs>
<clipPath id="clip0_1_21">
<rect width="36" height="36" fill="white"/>
</clipPath>
</defs>
</svg>
