<svg width="90" height="103" viewBox="0 0 90 103" fill="none" xmlns="http://www.w3.org/2000/svg">
<circle cx="4" cy="4" r="4" transform="matrix(0 1 1 0 0 26)" fill="#E8EFF2"/>
<line y1="-1" x2="19" y2="-1" transform="matrix(1 -4.37112e-08 -4.37112e-08 -1 1 29.3789)" stroke="#E8EFF2" stroke-width="2"/>
<circle cx="81" cy="30" r="4" transform="rotate(90 81 30)" fill="#E8EFF2"/>
<line x1="82" y1="30.3789" x2="63" y2="30.3789" stroke="#E8EFF2" stroke-width="2"/>
<line x1="71" y1="15.4531" x2="71" y2="31" stroke="#E8EFF2" stroke-width="2"/>
<line x1="85.75" y1="3.48331" x2="70.6445" y2="16.2177" stroke="#E8EFF2" stroke-width="2"/>
<circle cx="4" cy="4" r="4" transform="matrix(-1 9.06693e-10 9.06693e-10 1 89.1055 0)" fill="#E8EFF2"/>
<line x1="12" y1="15" x2="12" y2="31" stroke="#E8EFF2" stroke-width="2"/>
<circle cx="12" cy="12" r="4" fill="#5694DB"/>
<path d="M35.8602 87.1828L37.7966 88.3911C37.8241 88.4045 37.852 88.4156 37.8791 88.4301L35.6875 87.0625C35.7437 87.1041 35.7998 87.1454 35.8602 87.1828Z" fill="#0099DC"/>
<path d="M60.5933 84.1855L47.3594 59.6082L25.946 57.77L24.1635 57.6172H15.9492V81.7792C16.2282 81.7786 16.4996 81.8694 16.722 82.0378C17.3042 82.479 18.5954 83.4512 20.2965 84.6928C24.1796 87.5246 30.1996 91.7622 34.8177 94.3022C42.2295 98.3782 45.0911 100.182 47.0057 100.275C48.9203 100.367 52.7427 98.1486 55.6475 94.6425C58.477 91.2255 60.6854 87.3668 60.5933 84.1855Z" fill="#F2AD97"/>
<path d="M2.61446 84.2656H13.334C13.6773 84.2656 14.0173 84.198 14.3345 84.0666C14.6517 83.9352 14.9399 83.7426 15.1827 83.4999C15.4255 83.2571 15.618 82.9689 15.7494 82.6517C15.8808 82.3345 15.9484 81.9945 15.9484 81.6512V53.4582C15.9484 53.1149 15.8808 52.7749 15.7494 52.4577C15.618 52.1405 15.4255 51.8523 15.1827 51.6095C14.9399 51.3667 14.6517 51.1742 14.3345 51.0428C14.0173 50.9114 13.6773 50.8438 13.334 50.8438H2.61446C1.92106 50.8437 1.25606 51.1192 0.765758 51.6095C0.275451 52.0998 2.7919e-08 52.7648 2.7919e-08 53.4582V81.6512C-5.01511e-05 81.9945 0.0675405 82.3345 0.198912 82.6517C0.330283 82.969 0.522861 83.2572 0.765647 83.5C1.00843 83.7428 1.29667 83.9353 1.61389 84.0667C1.93111 84.1981 2.27111 84.2657 2.61446 84.2656Z" fill="#FF6C19"/>
<path d="M13.9641 50.918C14.0138 51.1193 14.0401 51.3298 14.0401 51.5464V79.7393C14.0401 80.4327 13.7647 81.0977 13.2744 81.588C12.7841 82.0783 12.1191 82.3538 11.4257 82.3538H0.706528C0.494759 82.3539 0.283752 82.3284 0.078125 82.2778C0.218718 82.8447 0.545045 83.3483 1.0051 83.7082C1.46515 84.0682 2.03244 84.2638 2.61657 84.2638H13.3361C13.6794 84.2638 14.0194 84.1962 14.3366 84.0648C14.6538 83.9334 14.942 83.7408 15.1848 83.4981C15.4276 83.2553 15.6202 82.9671 15.7515 82.6499C15.8829 82.3327 15.9506 81.9927 15.9506 81.6494V53.4564C15.9505 52.8722 15.7548 52.3049 15.3948 51.8448C15.0348 51.3848 14.5311 51.0585 13.9641 50.918Z" fill="#EA661B"/>
<path d="M59.7546 57.0004C56.8638 57.5435 53.9822 58.1343 51.1109 58.7725C48.0078 59.464 45.0457 60.3086 41.9515 60.6871C40.883 60.8193 39.7973 60.8957 38.6853 60.8888C37.0549 60.9068 34.2613 59.8949 33.171 61.8217C32.2729 63.4861 33.2058 65.4565 34.5715 66.5143C38.152 69.264 43.112 68.5901 47.2526 69.9264C47.9685 70.1575 48.9988 70.444 49.5511 70.9811C53.3754 76.0274 57.987 80.4576 62.2254 85.1632C62.5314 84.9511 65.4014 82.9742 66.913 81.9333C67.4801 81.5427 68.1525 81.3337 68.841 81.3339V57H59.7546V57.0004Z" fill="#FFD2C0"/>
<path d="M62.225 81.3444C57.9866 76.6388 53.375 72.2083 49.5508 67.1624C48.9984 66.6253 47.9681 66.3387 47.2522 66.1076C43.1112 64.7714 38.1516 65.4452 34.5711 62.6955C34.1236 62.347 33.7409 61.9225 33.4403 61.4414C33.3376 61.559 33.2474 61.6869 33.171 61.823C32.2729 63.4874 33.2058 65.4578 34.5715 66.5156C38.152 69.2653 43.112 68.5914 47.2526 69.9277C47.9685 70.1588 48.9988 70.4453 49.5511 70.9824C53.3754 76.0288 57.987 80.4589 62.2254 85.1645C62.5314 84.9525 65.4014 82.9756 66.913 81.9346C67.4801 81.544 68.1525 81.335 68.841 81.3352V77.5152C68.1525 77.5151 67.4802 77.7241 66.913 78.1145C65.401 79.1559 62.5306 81.1324 62.225 81.3444Z" fill="#FCC4AE"/>
<path d="M65.561 87.6317L65.1255 88.33C64.7468 88.9375 64.1423 89.3697 63.445 89.5318C62.7476 89.6938 62.0145 89.5723 61.4067 89.1941L61.1981 89.0642C61.1905 89.0592 61.1828 89.0676 61.1882 89.0753C61.4865 89.4941 61.654 89.9919 61.6694 90.5059C61.6849 91.0199 61.5476 91.5269 61.2749 91.9629L60.8581 92.631C60.4905 93.2204 59.9046 93.6404 59.2284 93.7993C58.5522 93.9582 57.8405 93.843 57.2489 93.4791C57.2405 93.4737 57.2332 93.4836 57.2405 93.4905C57.6716 93.9045 57.9473 94.4541 58.0213 95.0471C58.0953 95.6402 57.9631 96.2407 57.647 96.7479L57.2229 97.4275C57.0412 97.719 56.8038 97.9718 56.5243 98.1715C56.2448 98.3712 55.9287 98.5139 55.5941 98.5914C55.2594 98.6688 54.9128 98.6796 54.574 98.6231C54.2351 98.5665 53.9108 98.4438 53.6194 98.2618L52.6713 97.6701C52.6621 97.6643 52.6556 97.675 52.6637 97.6819C53.6699 98.4994 53.9357 99.9533 53.2321 101.081L52.8031 101.771C52.6219 102.061 52.3852 102.313 52.1067 102.512C51.8281 102.711 51.513 102.853 51.1795 102.93C50.846 103.007 50.5006 103.018 50.163 102.962C49.8253 102.905 49.5021 102.783 49.2118 102.601L36.4975 94.6686C35.9113 94.3024 35.4945 93.7184 35.3388 93.0449C35.183 92.3715 35.3011 91.6638 35.667 91.0774L36.096 90.3894C36.7996 89.2617 38.2241 88.8613 39.3996 89.4061C39.4091 89.4107 39.416 89.4 39.4068 89.3942L35.8595 87.1805C35.2731 86.8144 34.8561 86.2305 34.7001 85.5571C34.5441 84.8837 34.6618 84.1759 35.0275 83.5893L35.4584 82.9013C35.6394 82.6109 35.8759 82.359 36.1543 82.1601C36.4327 81.9612 36.7476 81.8191 37.0809 81.7419C37.4143 81.6648 37.7596 81.6542 38.0971 81.7106C38.4346 81.767 38.7576 81.8894 39.0478 82.0708L42.8357 84.4331C42.8441 84.4385 42.8514 84.4285 42.8441 84.4217C42.4135 84.0077 42.1383 83.4583 42.0646 82.8655C41.9909 82.2727 42.1231 81.6726 42.4392 81.1658L42.8682 80.4778C43.0494 80.1874 43.2861 79.9355 43.5646 79.7366C43.8432 79.5377 44.1583 79.3956 44.4918 79.3185C44.8253 79.2414 45.1707 79.2307 45.5083 79.2871C45.846 79.3436 46.1692 79.4659 46.4595 79.6473L50.3789 82.0922C50.3865 82.0971 50.3941 82.0883 50.3888 82.0811C50.0768 81.6488 49.9007 81.1334 49.8829 80.6006C49.865 80.0678 50.0063 79.5418 50.2887 79.0896L50.7318 78.3791C51.0641 77.8438 51.5749 77.4431 52.1739 77.2479C52.5476 77.1248 52.9438 77.0855 53.3345 77.1326C53.7251 77.1797 54.1006 77.3122 54.4343 77.5207L64.7038 83.93C65.2732 84.2846 65.6886 84.8402 65.8678 85.4867C65.969 85.8459 65.994 86.2222 65.9412 86.5916C65.8883 86.961 65.7589 87.3153 65.561 87.6317Z" fill="#F2AD97"/>
<path d="M65.8662 85.4866C65.6871 84.8401 65.2717 84.2845 64.7023 83.9299L63.9134 83.4375C64.0416 83.8141 64.0843 84.2145 64.0385 84.6097C63.9927 85.0049 63.8596 85.385 63.6487 85.7223L63.2132 86.4206C62.8344 87.0281 62.23 87.4604 61.5326 87.6224C60.8353 87.7844 60.1022 87.663 59.4944 87.2847L59.2858 87.1548C59.2781 87.1502 59.2705 87.1586 59.2758 87.1659C59.5742 87.5847 59.7417 88.0826 59.7571 88.5965C59.7725 89.1105 59.6352 89.6175 59.3626 90.0535L58.9458 90.7216C58.5782 91.311 57.9923 91.731 57.316 91.8898C56.6398 92.0486 55.9281 91.9334 55.3366 91.5693C55.3282 91.564 55.3209 91.5739 55.3282 91.5808C55.7593 91.9947 56.0349 92.5443 56.1089 93.1374C56.183 93.7305 56.0508 94.3309 55.7346 94.8381L55.3106 95.5177C55.1289 95.8092 54.8915 96.062 54.612 96.2617C54.3325 96.4614 54.0164 96.6041 53.6817 96.6816C53.3471 96.7591 53.0005 96.7699 52.6616 96.7133C52.3228 96.6568 51.9985 96.534 51.7071 96.352L50.759 95.7603C50.7502 95.7546 50.7433 95.7653 50.7513 95.7722C51.7579 96.5897 52.0234 98.0436 51.3198 99.1713L50.8908 99.8612C50.7096 100.152 50.4729 100.403 50.1943 100.602C49.9158 100.801 49.6007 100.943 49.2672 101.02C48.9337 101.098 48.5883 101.108 48.2506 101.052C47.913 100.995 47.5898 100.873 47.2995 100.692L35.3984 93.2662C35.5874 93.8484 35.976 94.3452 36.4956 94.6689L49.2099 102.602C49.5002 102.783 49.8234 102.905 50.1611 102.962C50.4987 103.018 50.8441 103.008 51.1776 102.931C51.5111 102.853 51.8262 102.711 52.1048 102.512C52.3833 102.313 52.62 102.062 52.8012 101.771L53.2302 101.081C53.9338 99.9536 53.668 98.4997 52.6618 97.6822C52.6537 97.6757 52.6602 97.665 52.6694 97.6704L53.6175 98.2621C53.9089 98.444 54.2332 98.5668 54.5721 98.6233C54.9109 98.6799 55.2575 98.6691 55.5922 98.5916C55.9268 98.5142 56.2429 98.3715 56.5224 98.1718C56.8019 97.9721 57.0393 97.7193 57.221 97.4278L57.6451 96.7482C57.9614 96.241 58.0936 95.6405 58.0196 95.0474C57.9456 94.4543 57.6698 93.9047 57.2386 93.4908C57.2313 93.4839 57.2386 93.474 57.247 93.4793C57.8386 93.8434 58.5502 93.9585 59.2264 93.7997C59.9026 93.6409 60.4885 93.221 60.8562 92.6317L61.273 91.9635C61.5456 91.5275 61.6828 91.0205 61.6674 90.5066C61.6519 89.9926 61.4845 89.4948 61.1863 89.0759C61.1809 89.0687 61.1886 89.0603 61.1962 89.0649L61.4048 89.1947C62.0126 89.573 62.7457 89.6945 63.4431 89.5324C64.1404 89.3704 64.7449 88.9381 65.1236 88.3306L65.5591 87.6323C65.7568 87.3157 65.8862 86.9614 65.9391 86.5919C65.992 86.2224 65.9672 85.8459 65.8662 85.4866Z" fill="#E59076"/>
<path d="M71.4582 84.2656H82.1777C82.8711 84.2656 83.5361 83.9902 84.0264 83.4999C84.5167 83.0096 84.7922 82.3446 84.7922 81.6512V53.4582C84.7922 52.7648 84.5167 52.0998 84.0264 51.6095C83.5361 51.1192 82.8711 50.8437 82.1777 50.8438H71.4582C70.7648 50.8437 70.0998 51.1192 69.6095 51.6095C69.1192 52.0998 68.8438 52.7648 68.8438 53.4582V81.6512C68.8438 82.3446 69.1192 83.0096 69.6095 83.4999C70.0998 83.9902 70.7648 84.2656 71.4582 84.2656Z" fill="#5694DB"/>
<path d="M82.8043 50.918C82.854 51.1193 82.8804 51.3298 82.8804 51.5464V79.7393C82.8804 80.4327 82.6049 81.0977 82.1146 81.588C81.6243 82.0783 80.9593 82.3538 80.2659 82.3538H69.5464C69.3346 82.3539 69.1236 82.3284 68.918 82.2778C69.0586 82.8447 69.3849 83.3483 69.8449 83.7082C70.305 84.0682 70.8723 84.2638 71.4564 84.2638H82.1759C82.8693 84.2638 83.5343 83.9884 84.0246 83.4981C84.5149 83.0078 84.7904 82.3428 84.7904 81.6494V53.4564C84.7904 52.8723 84.5948 52.3049 84.2349 51.8449C83.8749 51.3848 83.3713 51.0585 82.8043 50.918Z" fill="#5574D4"/>
<path d="M22.4826 89.3805C21.7868 88.9463 21.292 88.2535 21.107 87.4545C20.9221 86.6555 21.0621 85.8157 21.4962 85.1199L24.0714 80.9931C24.5106 80.3084 25.202 79.8243 25.9957 79.6457C26.7894 79.4672 27.6215 79.6086 28.3117 80.0392C29.0019 80.4699 29.4946 81.1552 29.6831 81.9466C29.8715 82.738 29.7406 83.5718 29.3186 84.2673L26.7435 88.3941C26.3091 89.0898 25.6162 89.5844 24.8172 89.7694C24.0182 89.9544 23.1785 89.8145 22.4826 89.3805Z" fill="#FFD2C0"/>
<path d="M28.3332 80.0061C28.1366 79.8834 27.9268 79.7831 27.7079 79.707C27.8594 80.1429 27.9113 80.6073 27.8597 81.0659C27.8081 81.5245 27.6542 81.9657 27.4095 82.357L24.8344 86.4838C24.4636 87.0781 23.902 87.5288 23.2417 87.7624C22.5813 87.996 21.8612 87.9986 21.1992 87.7697C21.3904 88.3212 21.7337 88.8073 22.1895 89.1719C22.6453 89.5365 23.1949 89.7646 23.7749 89.83C24.355 89.8953 24.9416 89.7951 25.4671 89.5411C25.9926 89.287 26.4354 88.8894 26.7444 88.3943L29.3196 84.2674C29.7538 83.5715 29.8938 82.7317 29.7088 81.9325C29.5239 81.1334 29.029 80.4405 28.3332 80.0061Z" fill="#FCC4AE"/>
<path d="M27.5685 92.8901C26.8727 92.4559 26.3779 91.7631 26.193 90.9641C26.008 90.1651 26.148 89.3254 26.5822 88.6296L30.8824 81.7382C31.3243 81.0591 32.0149 80.5806 32.8058 80.4053C33.5968 80.23 34.4249 80.3721 35.1122 80.8009C35.7995 81.2297 36.2912 81.911 36.4815 82.6984C36.6719 83.4859 36.5457 84.3166 36.1301 85.012L31.8294 91.9038C31.3952 92.5996 30.7023 93.0944 29.9032 93.2794C29.1042 93.4643 28.2644 93.3243 27.5685 92.8901Z" fill="#FFD2C0"/>
<path d="M35.1447 80.7522C34.9481 80.6295 34.7383 80.5292 34.5193 80.4531C34.6709 80.889 34.7228 81.3534 34.6712 81.812C34.6195 82.2706 34.4657 82.7118 34.221 83.1031L29.9203 89.9949C29.5494 90.589 28.9878 91.0397 28.3275 91.2733C27.6672 91.5069 26.9472 91.5095 26.2852 91.2808C26.5157 91.9492 26.9693 92.518 27.5698 92.8913C28.2656 93.3255 29.1054 93.4655 29.9044 93.2805C30.7034 93.0955 31.3962 92.6007 31.8304 91.905L36.131 85.0132C36.3461 84.6686 36.4911 84.2851 36.558 83.8845C36.6248 83.4839 36.612 83.0741 36.5204 82.6784C36.4288 82.2827 36.2602 81.909 36.0241 81.5785C35.7881 81.248 35.4893 80.9672 35.1447 80.7522Z" fill="#FCC4AE"/>
<path d="M32.881 96.0382C32.1852 95.604 31.6904 94.9111 31.5055 94.112C31.3205 93.313 31.4605 92.4732 31.8947 91.7773L34.9038 86.9552C35.338 86.2595 36.0308 85.7647 36.8298 85.5797C37.6288 85.3947 38.4685 85.5347 39.1643 85.9689C39.8601 86.4031 40.3549 87.0959 40.5399 87.8949C40.7248 88.6939 40.5848 89.5336 40.1507 90.2294L37.1416 95.0519C36.7074 95.7477 36.0146 96.2425 35.2156 96.4274C34.4166 96.6124 33.5768 96.4724 32.881 96.0382Z" fill="#FFD2C0"/>
<path d="M39.1617 85.9636C38.9651 85.8407 38.7553 85.7402 38.5364 85.6641C38.6879 86.1 38.7398 86.5643 38.6882 87.0229C38.6365 87.4816 38.4827 87.9228 38.238 88.3141L35.2289 93.1365C34.858 93.7306 34.2964 94.1813 33.6361 94.4149C32.9758 94.6485 32.2558 94.6511 31.5938 94.4224C31.8243 95.0908 32.2779 95.6596 32.8784 96.0329C33.5742 96.4671 34.414 96.6071 35.213 96.4221C36.012 96.2371 36.7048 95.7423 37.139 95.0466L40.1481 90.2241C40.5822 89.5283 40.7222 88.6886 40.5373 87.8895C40.3523 87.0905 39.8575 86.3977 39.1617 85.9636Z" fill="#FCC4AE"/>
<path d="M38.0216 99.4555C37.3259 99.0213 36.8311 98.3285 36.6461 97.5295C36.4611 96.7305 36.6011 95.8908 37.0353 95.195L38.6691 92.5763C39.1033 91.8806 39.7961 91.3858 40.5951 91.2008C41.3941 91.0158 42.2339 91.1558 42.9297 91.59C43.6255 92.0242 44.1203 92.717 44.3052 93.516C44.4902 94.315 44.3502 95.1547 43.916 95.8505L42.2822 98.4692C41.848 99.165 41.1552 99.6598 40.3562 99.8447C39.5572 100.03 38.7174 99.8897 38.0216 99.4555Z" fill="#FFD2C0"/>
<path d="M42.931 91.5886C42.7344 91.4657 42.5246 91.3652 42.3057 91.2891C42.4572 91.725 42.5091 92.1893 42.4575 92.6479C42.4058 93.1066 42.252 93.5478 42.0073 93.9391L40.3735 96.5573C40.0025 97.1515 39.441 97.6021 38.7806 97.8357C38.1203 98.0693 37.4003 98.0719 36.7383 97.8432C36.9294 98.3947 37.2727 98.8808 37.7285 99.2454C38.1843 99.61 38.734 99.8381 39.314 99.9034C39.894 99.9688 40.4807 99.8686 41.0062 99.6146C41.5316 99.3605 41.9745 98.9629 42.2835 98.4678L43.9174 95.8495C44.3516 95.1536 44.4916 94.3138 44.3066 93.5147C44.1216 92.7157 43.6268 92.0228 42.931 91.5886Z" fill="#FCC4AE"/>
<path d="M62.7981 15H20.2019C19.8832 15 19.5775 15.1385 19.352 15.385C19.1266 15.6315 19 15.9658 19 16.3144V39.6856C19 40.0342 19.1266 40.3685 19.352 40.615C19.5775 40.8615 19.8832 41 20.2019 41H62.7981C63.1168 41 63.4225 40.8615 63.648 40.615C63.8734 40.3685 64 40.0342 64 39.6856V16.3144C64 15.9658 63.8734 15.6315 63.648 15.385C63.4225 15.1385 63.1168 15 62.7981 15Z" fill="#E8EFF2"/>
<path d="M41.4393 63.4607C47.1617 63.4607 51.8005 58.8218 51.8005 53.0995C51.8005 47.3771 47.1617 42.7383 41.4393 42.7383C35.717 42.7383 31.0781 47.3771 31.0781 53.0995C31.0781 58.8218 35.717 63.4607 41.4393 63.4607Z" fill="#FF6C19"/>
<path d="M47.7438 44.8828C49.1364 46.6904 49.8902 48.9087 49.8873 51.1905C49.8873 56.913 45.2486 61.5517 39.5261 61.5517C37.2444 61.5547 35.0262 60.8009 33.2188 59.4083C35.1127 61.8722 38.0882 63.4618 41.4361 63.4618C47.1586 63.4618 51.7973 58.823 51.7973 53.1006C51.7977 49.7523 50.2078 46.7768 47.7438 44.8828Z" fill="#EA661B"/>
<path d="M40.4618 57.1238C40.0565 57.1236 39.6678 56.9626 39.3811 56.6761L36.393 53.6884C36.2511 53.5465 36.1385 53.3781 36.0617 53.1927C35.9849 53.0073 35.9453 52.8086 35.9453 52.6079C35.9453 52.4072 35.9849 52.2085 36.0617 52.0231C36.1385 51.8377 36.2511 51.6692 36.393 51.5274C36.5349 51.3854 36.7034 51.2728 36.8888 51.196C37.0742 51.1192 37.2729 51.0796 37.4736 51.0796C37.6742 51.0796 37.873 51.1192 38.0584 51.196C38.2438 51.2728 38.4122 51.3854 38.5541 51.5274L40.4614 53.434L44.3262 49.5688C44.4681 49.4269 44.6365 49.3143 44.8219 49.2375C45.0073 49.1606 45.206 49.1211 45.4067 49.1211C45.6074 49.1211 45.8061 49.1606 45.9915 49.2375C46.1769 49.3143 46.3454 49.4269 46.4872 49.5688C46.6292 49.7107 46.7418 49.8791 46.8186 50.0645C46.8954 50.2499 46.935 50.4487 46.935 50.6493C46.935 50.85 46.8954 51.0487 46.8186 51.2341C46.7418 51.4195 46.6292 51.588 46.4872 51.7298L41.5421 56.6761C41.4004 56.8181 41.232 56.9308 41.0466 57.0076C40.8612 57.0844 40.6625 57.1239 40.4618 57.1238Z" fill="white"/>
<rect x="19" y="22" width="45" height="5" fill="#5694DB"/>
<rect x="22" y="32" width="16" height="2" rx="1" fill="#AEAEAE"/>
<rect x="22" y="36" width="16" height="2" rx="1" fill="#AEAEAE"/>
<path d="M72.5174 30.8706C70.3804 39.442 61.699 44.6585 53.1266 42.521C44.5577 40.384 39.3412 31.7021 41.4792 23.1312C43.6152 14.5588 52.2966 9.34181 60.8665 11.4788C69.4385 13.6158 74.6544 22.2987 72.5174 30.8706Z" fill="#FF6C19"/>
<path d="M64.052 24.7196C64.3705 22.5907 62.7495 21.4462 60.533 20.6827L61.252 17.7987L59.4966 17.3612L58.7966 20.1692C58.3351 20.0542 57.8611 19.9457 57.3901 19.8382L58.0951 17.0117L56.3406 16.5742L55.6211 19.4572C55.2391 19.3702 54.8641 19.2842 54.5001 19.1937L54.5021 19.1847L52.0811 18.5802L51.6141 20.4552C51.6141 20.4552 52.9166 20.7537 52.8891 20.7722C53.6001 20.9497 53.7286 21.4202 53.7071 21.7932L52.8881 25.0786C52.9371 25.0911 53.0006 25.1091 53.0706 25.1371C53.0121 25.1226 52.9496 25.1066 52.8851 25.0911L51.7371 29.6936C51.6501 29.9096 51.4296 30.2336 50.9326 30.1106C50.9501 30.1361 49.6567 29.7921 49.6567 29.7921L48.7852 31.8016L51.0696 32.3711C51.4946 32.4776 51.9111 32.5891 52.3211 32.6941L51.5946 35.611L53.3481 36.0485L54.0676 33.1626C54.5466 33.2926 55.0116 33.4126 55.4666 33.5256L54.7496 36.398L56.5051 36.8355L57.2316 33.9241C60.225 34.4905 62.476 34.262 63.4235 31.5546C64.187 29.3746 63.3855 28.1171 61.8105 27.2971C62.9575 27.0326 63.8215 26.2781 64.052 24.7196ZM60.041 30.3441C59.4985 32.5241 55.8281 31.3456 54.6381 31.0501L55.6021 27.1856C56.7921 27.4826 60.608 28.0706 60.041 30.3441ZM60.584 24.6881C60.089 26.6711 57.0341 25.6636 56.0431 25.4166L56.9171 21.9117C57.9081 22.1587 61.0995 22.6197 60.584 24.6881Z" fill="white"/>
</svg>
