<svg width="26" height="39" viewBox="0 0 26 39" fill="none" xmlns="http://www.w3.org/2000/svg">
<path fill-rule="evenodd" clip-rule="evenodd" d="M11.7471 0.564004C9.47138 0.971727 7.5958 2.40202 6.60823 4.48266C6.12106 5.50909 6.00316 6.12521 5.95857 7.87815L5.91985 9.40005L5.6542 9.92968C5.40554 10.4255 5.39042 10.4966 5.41697 11.0433C5.4502 11.7292 5.6257 12.1428 6.08264 12.6122C6.43702 12.9764 6.68312 13.1141 7.2236 13.2506L7.61618 13.3498L7.74911 13.8837C8.00371 14.9065 8.63893 15.9429 9.39348 16.5666L9.76643 16.8749V17.5965V18.3179L6.32641 19.6337C4.43436 20.3574 2.7057 21.0569 2.48486 21.1882C1.52233 21.7603 0.671314 22.7673 0.328966 23.7391C0.0111303 24.6415 -0.0175179 25.3375 0.00654346 31.5664L0.0291012 37.4001L0.254676 37.7597C0.402804 37.9958 0.594017 38.1785 0.811622 38.292C1.14224 38.4644 1.14991 38.4648 4.08712 38.4648C6.94599 38.4648 7.03592 38.4604 7.1957 38.3134C7.41692 38.1099 7.41692 37.7061 7.1957 37.5026C7.05457 37.3727 6.9317 37.3512 6.331 37.3512H5.63089V31.7799V26.2085L5.44629 26.0263C5.19515 25.7783 4.86258 25.784 4.65888 26.0397C4.50436 26.2336 4.50301 26.2828 4.50301 31.7933V37.3512L2.94278 37.3501C2.08469 37.3494 1.3318 37.3172 1.26977 37.2785C1.17096 37.2168 1.15698 36.4403 1.15698 31.025C1.15698 25.2468 1.166 24.8127 1.2945 24.3964C1.56873 23.508 2.13597 22.7574 2.91007 22.2587C3.45003 21.9108 7.38985 20.3578 7.49233 20.4524C7.52309 20.4809 7.95431 21.3131 8.45058 22.3018C9.19813 23.7911 9.39672 24.1281 9.60838 24.2665C9.92584 24.4741 10.3257 24.4811 10.6517 24.2848C10.7872 24.2033 10.9124 24.1366 10.9301 24.1366C10.9478 24.1366 11.0613 24.2788 11.1824 24.4525L11.4025 24.7684L10.5411 29.7792C9.80801 34.0424 9.69154 34.8287 9.76012 35.0498C9.81072 35.2129 10.1917 35.6896 10.7839 36.3304L11.727 37.3512H10.5313C9.43544 37.3512 9.31904 37.364 9.13745 37.5051C8.86285 37.7183 8.86346 38.0981 9.13873 38.3119L9.33814 38.4668L17.1709 38.4473L25.0038 38.4277L25.3164 38.2234C25.4883 38.1111 25.7057 37.8773 25.7996 37.7038C25.9665 37.3953 25.9708 37.3292 25.9942 34.7176C26.0075 33.2487 25.9971 31.9356 25.9712 31.7996C25.8811 31.3251 25.4256 31.1138 25.068 31.3804C24.9234 31.4882 24.9161 31.6022 24.88 34.3504C24.848 36.7822 24.8255 37.2188 24.7296 37.2786C24.6676 37.3173 23.9147 37.3494 23.0566 37.3501L21.4963 37.3512V31.7933C21.4963 26.2828 21.495 26.2336 21.3405 26.0397C21.1368 25.784 20.8042 25.7783 20.5531 26.0263L20.3685 26.2085V31.7799V37.3512H17.3182H14.2678L15.2131 36.3304C15.8129 35.6827 16.1874 35.2147 16.2378 35.0498C16.3052 34.8298 16.1852 34.021 15.4563 29.7802L14.5953 24.7705L14.8162 24.4535C14.9377 24.2792 15.0516 24.1366 15.0693 24.1366C15.0869 24.1366 15.2122 24.2033 15.3476 24.2848C15.6605 24.4731 16.0523 24.4739 16.3633 24.2866C16.5644 24.1655 16.7702 23.8172 17.5517 22.2748C18.3516 20.6963 18.5188 20.415 18.6385 20.446C18.7164 20.4661 19.6366 20.8094 20.6834 21.209C23.1856 22.1639 23.7446 22.5252 24.3515 23.5798C24.7914 24.3442 24.8222 24.558 24.8611 27.1259L24.8968 29.4841L25.0865 29.6315C25.336 29.8252 25.5029 29.8173 25.7593 29.5997L25.9703 29.4206L25.9934 27.5767C26.0198 25.479 25.937 24.4962 25.6704 23.7391C25.3342 22.7848 24.5781 21.8701 23.6197 21.2585C23.3388 21.0793 21.9081 20.4906 19.705 19.6478L16.2329 18.3194L16.2334 17.5717L16.2339 16.824L16.7878 16.2507C17.5344 15.4782 17.9644 14.6546 18.2179 13.5114C18.2534 13.3514 18.3159 13.3082 18.5697 13.2682C19.2231 13.165 19.9109 12.6641 20.2093 12.0742C20.3051 11.8848 20.4201 11.5188 20.4649 11.2609C20.5374 10.8428 20.5278 10.7367 20.3766 10.2816C20.2834 10.0009 20.1503 9.70941 20.0809 9.63383C19.9742 9.51743 19.9479 9.24415 19.9092 7.85209C19.8721 6.51793 19.8339 6.09996 19.7065 5.63626C19.0892 3.38896 17.3911 1.57559 15.2169 0.841882C14.1181 0.471056 12.8381 0.368606 11.7471 0.564004ZM14.4901 1.78695C16.2373 2.28042 17.6234 3.48273 18.326 5.11414C18.6637 5.89833 18.7894 6.60754 18.7894 7.72796V8.6976L18.5827 8.64883C18.2864 8.57889 18.2631 8.55766 18.2631 8.35825C18.2631 8.1679 17.8012 7.60554 16.8243 6.6065C16.3617 6.13337 16.2192 6.03174 15.9584 5.98875C15.6182 5.9327 15.633 5.92706 14.3531 6.60086C12.6959 7.47324 11.0589 7.87785 9.18422 7.87844C8.18944 7.87874 7.86844 7.99188 7.7137 8.39664C7.63542 8.60139 7.47677 8.69159 7.19112 8.69374C7.07412 8.69463 7.05976 8.6103 7.06186 7.93383C7.06314 7.51526 7.0951 6.93835 7.13284 6.65171C7.46722 4.11228 9.41732 2.0992 11.9855 1.64226C12.58 1.53654 13.8664 1.61078 14.4901 1.78695ZM16.4773 7.85936L17.1352 8.57006L17.1343 10.9153C17.1336 12.7348 17.1088 13.3519 17.0236 13.6682C16.6399 15.0915 15.4923 16.2238 14.049 16.6031C13.5067 16.7456 12.4209 16.7416 11.845 16.595C10.5344 16.2614 9.45882 15.2895 8.9497 13.9791C8.76112 13.4935 8.75653 13.4367 8.72961 11.2375L8.70217 8.99174L9.40348 8.9904C11.2849 8.98676 13.522 8.39263 15.105 7.47621C15.4152 7.29663 15.7028 7.14949 15.7442 7.14919C15.7855 7.14882 16.1155 7.46842 16.4773 7.85936ZM7.58587 10.9591C7.58587 12.3134 7.58384 12.318 7.12886 12.0152C6.38243 11.5186 6.31273 10.5237 6.99081 10.0456C7.13194 9.94601 7.4488 9.77808 7.56707 9.74015C7.57738 9.73688 7.58587 10.2854 7.58587 10.9591ZM18.8724 9.96227C19.1193 10.1359 19.3916 10.6635 19.3893 10.964C19.3854 11.4782 18.957 12.0282 18.4653 12.15L18.2631 12.2001V10.9591V9.71802L18.4653 9.76813C18.5765 9.79568 18.7597 9.88306 18.8724 9.96227ZM12.7423 17.8077C13.4917 17.8371 13.7545 17.817 14.2461 17.6929C14.5738 17.6101 14.9011 17.5193 14.9735 17.4908C15.0915 17.4445 15.105 17.4946 15.105 17.9783V18.5176L14.0827 19.768C13.5204 20.4558 13.0328 21.0185 12.9991 21.0185C12.9654 21.0185 12.4783 20.4589 11.9167 19.775L10.8954 18.5315L10.8949 18.0011L10.8943 17.4706L11.3643 17.6213C11.6875 17.725 12.1176 17.7832 12.7423 17.8077ZM11.1782 20.6476C11.7274 21.3148 12.1505 21.8835 12.1183 21.9114C11.9432 22.0632 10.1993 23.2521 10.181 23.2322C10.0678 23.1094 8.5663 20.0257 8.60224 19.9897C8.68254 19.9095 10.0246 19.3977 10.1046 19.4167C10.1459 19.4265 10.629 19.9805 11.1782 20.6476ZM16.6089 19.6545C17.0018 19.8028 17.351 19.9488 17.3849 19.9791C17.4307 20.0199 15.953 23.087 15.8167 23.2338C15.8038 23.2477 15.3515 22.9483 14.8115 22.5685C13.9361 21.9527 13.8397 21.8636 13.9222 21.7464C14.1169 21.4701 15.8212 19.3937 15.857 19.3894C15.8776 19.3869 16.216 19.5061 16.6089 19.6545ZM13.6012 23.0839C13.87 23.2681 14.1009 23.4269 14.1144 23.4369C14.1279 23.4468 14.0472 23.5915 13.9352 23.7586L13.7316 24.0623H12.9997H12.2678L12.0614 23.7544C11.8975 23.5099 11.8761 23.4345 11.9574 23.3881C12.0137 23.356 12.2628 23.1816 12.5109 23.0004C12.7591 22.8193 12.9959 22.6886 13.0373 22.7101C13.0786 22.7315 13.3324 22.8998 13.6012 23.0839ZM13.5559 25.3801C13.5789 25.4923 13.9386 27.5887 14.3552 30.0386C14.7718 32.4885 15.1269 34.5431 15.1441 34.6043C15.174 34.7098 13.1232 37.0171 12.9997 37.0171C12.9693 37.0171 12.4679 36.4993 11.8856 35.8664C11.0997 35.0123 10.8354 34.6774 10.8604 34.5672C10.879 34.4856 11.233 32.431 11.6473 30.0015C12.0616 27.572 12.4196 25.4923 12.4429 25.3801C12.4842 25.1814 12.4989 25.1759 12.9997 25.1759C13.5006 25.1759 13.5152 25.1813 13.5559 25.3801Z" fill="url(#paint0_linear_1_1465)"/>
<defs>
<linearGradient id="paint0_linear_1_1465" x1="3.26274" y1="38.4668" x2="27.5488" y2="28.5707" gradientUnits="userSpaceOnUse">
<stop stop-color="#FDD535"/>
<stop offset="1" stop-color="#BBAC6F"/>
</linearGradient>
</defs>
</svg>
