<svg width="33" height="39" viewBox="0 0 33 39" fill="none" xmlns="http://www.w3.org/2000/svg">
<path fill-rule="evenodd" clip-rule="evenodd" d="M15.4336 0.744637C14.9452 0.990077 14.8129 1.11634 14.298 1.82838C13.5973 2.79715 13.3734 2.93744 12.5197 2.9424C11.6488 2.94744 11.1055 3.12962 10.583 3.5916C10.0166 4.0924 9.7501 4.73083 9.81295 5.43638C9.84755 5.8239 10.0276 6.26477 10.7355 7.6956L11.6153 9.47335L11.3201 9.71264C10.7419 10.1814 10.5958 11.093 11.015 11.6172L11.1908 11.8369L11.015 12.0566C10.7382 12.4027 10.6941 12.9418 10.9043 13.4091L11.0818 13.8038L10.5867 14.1139C6.83245 16.4649 3.88099 20.9291 2.48654 26.3656C1.94148 28.4904 1.61836 30.9133 1.6168 32.8869L1.61584 34.0606L1.28594 34.2261C1.10452 34.3171 0.793479 34.5651 0.594842 34.777C-0.448149 35.8898 -0.0727831 37.6224 1.35505 38.2852L1.74624 38.4668H16.5244C30.4109 38.4668 31.3221 38.4578 31.6254 38.3174C33.0724 37.6475 33.4511 35.9077 32.405 34.736C32.2576 34.5709 31.9846 34.3683 31.7984 34.2857L31.4598 34.1356L31.4034 32.6679C31.2302 28.1598 30.2493 24.3322 28.3502 20.7542C27.3086 18.7917 26.3178 17.4741 24.6612 15.8485C24.0588 15.2573 23.2587 14.4494 22.8833 14.0533C22.216 13.3491 22.2011 13.3238 22.2162 12.9228C22.2265 12.6501 22.1714 12.3991 22.0518 12.1734L21.8719 11.834L22.0451 11.5161C22.3863 10.8902 22.2253 10.1721 21.6367 9.69349L21.3814 9.48592L22.2768 7.69064C23.1541 5.93162 23.1722 5.88323 23.1734 5.29233C23.1754 4.31535 22.7504 3.64503 21.8373 3.18493C21.5707 3.05063 21.262 2.9942 20.6272 2.96368C19.5871 2.91367 19.3929 2.80655 18.8073 1.96004C18.0602 0.879881 17.4041 0.466797 16.4355 0.466797C16.1001 0.466797 15.8464 0.537155 15.4336 0.744637ZM17.1853 1.6881C17.3477 1.79556 17.6586 2.14119 17.876 2.45613C18.7094 3.66333 19.0736 3.88611 20.3494 3.96947C21.334 4.03384 21.701 4.17643 21.961 4.59585C22.3123 5.16238 22.2253 5.49571 21.1979 7.51915L20.2643 9.35769H16.5022H12.7402L11.7771 7.45555C10.897 5.71729 10.8176 5.52127 10.8561 5.18034C10.9448 4.3958 11.5778 3.97186 12.6605 3.97186C13.2301 3.97186 13.4008 3.93399 13.8702 3.70334C14.3157 3.4844 14.4909 3.33171 14.8186 2.87734C15.3536 2.13512 15.7845 1.65989 16 1.57388C16.3486 1.43496 16.8801 1.48617 17.1853 1.6881ZM21.0071 10.472C21.2447 10.5971 21.23 11.02 20.9819 11.1908C20.8135 11.3069 20.2426 11.3239 16.5168 11.3239C12.3265 11.3239 12.2404 11.3205 12.0158 11.1467C11.7514 10.9423 11.7342 10.8372 11.9221 10.5736L12.0573 10.3836H16.4481C19.3085 10.3836 20.8975 10.4144 21.0071 10.472ZM20.9819 12.4829C21.1948 12.6295 21.2438 13.0176 21.0709 13.1876C20.9925 13.2647 19.8607 13.2902 16.512 13.2902H12.0573L11.9221 13.1002C11.7432 12.8491 11.7513 12.7266 11.9606 12.5208C12.1297 12.3544 12.2503 12.3498 16.4616 12.3498C20.2374 12.3498 20.8134 12.3667 20.9819 12.4829ZM22.119 14.7221C24.4546 17.1535 25.4603 20.3607 24.9 23.5917C24.794 24.2026 24.7117 24.3183 24.383 24.3183C23.9988 24.3183 23.8588 24.0391 23.9756 23.5062C24.0271 23.2711 24.0688 22.5017 24.0681 21.7964C24.0672 20.6993 24.0352 20.3958 23.847 19.6956C23.3422 17.8175 22.6204 16.5773 21.2513 15.2351L20.3138 14.3161L20.6793 14.3101C20.8803 14.3067 21.123 14.271 21.2187 14.2306C21.511 14.107 21.547 14.1266 22.119 14.7221ZM18.467 14.8076C19.059 15.9722 19.3497 17.2035 19.3497 18.5477V19.4302L18.8063 19.2298C18.5076 19.1197 18.1945 19.0089 18.1109 18.9837C17.9795 18.9441 17.9588 18.8232 17.9588 18.0935C17.9588 16.9327 17.9473 16.9235 16.5076 16.9235C15.1108 16.9235 15.0901 16.9416 15.0901 18.163V18.9989L14.7893 19.0544C14.2394 19.1559 13.1533 19.7589 12.6736 20.2292C11.6865 21.1968 11.2915 22.708 11.66 24.108C12.0067 25.4257 13.0469 26.4096 14.6337 26.9207L15.0901 27.0677L15.0864 28.0653L15.0828 29.063L14.7857 28.7321C14.6223 28.5502 14.4239 28.204 14.3448 27.9627C14.1257 27.2945 13.9997 27.1395 13.6754 27.1394C13.5211 27.1394 12.8697 27.2424 12.2276 27.3683C10.5693 27.6936 10.5527 27.7191 11.0962 29.1049C11.4374 29.9751 12.093 30.9475 12.682 31.4574C13.1748 31.8839 14.3108 32.486 14.7893 32.5744L15.0901 32.6298V33.2852C15.0901 34.3068 15.109 34.3206 16.5159 34.3206C17.9236 34.3206 17.9382 34.3112 17.9763 33.3852L18.0022 32.7535L18.5527 32.6433C18.8555 32.5827 19.3836 32.3965 19.7262 32.2296C21.3707 31.4285 22.2184 30.0858 22.2184 28.2825C22.2184 26.3928 21.3025 25.2382 19.1006 24.3514C18.9273 24.2816 19.1114 24.211 20.2742 23.9018C21.0327 23.7001 21.7218 23.4745 21.8054 23.4005C21.9804 23.2457 21.9981 23.0048 21.8624 22.622C21.7842 22.4015 21.8067 22.204 21.9878 21.5192C22.1886 20.7599 22.3532 19.798 22.4158 19.018C22.4594 18.4743 22.9126 20.0406 23.0219 21.1125C23.1014 21.8936 23.0938 22.2144 22.9772 23.0072C22.8159 24.1029 22.8646 24.4164 23.2659 24.8658C23.6068 25.2478 23.9452 25.3734 24.5087 25.3274C25.3412 25.2596 25.7597 24.7899 25.9414 23.7199C26.2078 22.1502 26.1403 20.5887 25.7406 19.0746L25.5339 18.2913L25.7828 18.5905C25.9197 18.7551 26.2761 19.2744 26.575 19.7446C28.852 23.3277 30.1453 27.7208 30.3563 32.5894L30.4165 33.9786H29.0992H27.7819V34.4835V34.9885L29.4119 35.0194C31.2255 35.0539 31.4664 35.1158 31.7842 35.6285C32.1017 36.1405 31.9288 36.8859 31.4049 37.2639L31.1594 37.4409H16.5398C2.12769 37.4409 1.9161 37.4385 1.63575 37.2718C1.25247 37.0439 0.970296 36.4649 1.04688 36.0633C1.12721 35.6427 1.57742 35.185 2.00703 35.0875C2.19828 35.0441 2.99047 35.0076 3.76737 35.0065L5.17999 35.0045V34.4915V33.9786H3.9195H2.65901V32.8763C2.65901 29.2484 3.64349 25.0664 5.2677 21.7951C6.87374 18.5604 9.02544 16.165 11.6788 14.6579L12.2648 14.325L15.241 14.3205L18.217 14.3161L18.467 14.8076ZM21.2646 17.1421C21.4632 18.4934 21.3062 20.297 20.8723 21.6476C20.6258 22.4152 20.4237 22.6561 20.0946 22.5749C19.7044 22.4786 19.6636 22.2508 19.9084 21.5344C20.2982 20.3926 20.4172 19.5331 20.369 18.2058C20.329 17.105 20.2507 16.6437 19.9047 15.4702C19.8764 15.3741 20.1454 15.5822 20.519 15.9452C21.1683 16.5763 21.1855 16.6039 21.2646 17.1421ZM16.9156 18.7483C16.9156 19.7306 16.9545 19.7909 17.698 19.9596C18.3491 20.1075 19.0889 20.4365 19.0889 20.5782C19.0889 20.7034 18.7417 21.7536 18.7002 21.7536C18.6865 21.7536 18.4479 21.619 18.17 21.4544C17.6136 21.1249 17.3157 21.082 17.0746 21.2967C16.9313 21.4242 16.9156 21.5968 16.9156 23.0432C16.9156 24.8464 16.9149 24.8442 17.5498 25.0046C19.5614 25.5129 20.3619 25.993 20.8959 27.0112C21.2207 27.6304 21.27 28.7729 21.0023 29.4718C20.5223 30.7245 19.3042 31.5705 17.7502 31.7302C17.033 31.8039 16.9156 31.9398 16.9156 32.6963V33.2947H16.5244H16.1332V32.6596C16.1332 32.2223 16.0945 31.9864 16.0087 31.9021C15.9402 31.8347 15.6232 31.7151 15.3044 31.6364C13.9334 31.2977 12.9516 30.5201 12.3146 29.2687C12.1172 28.8808 11.9861 28.537 12.0233 28.5046C12.0889 28.4477 13.0172 28.2508 13.2201 28.2508C13.2753 28.2508 13.4071 28.4393 13.513 28.6698C13.7964 29.2866 14.3226 29.8264 14.9326 30.1261C15.5396 30.4245 15.6698 30.4411 15.94 30.2549C16.1294 30.1245 16.1332 30.0859 16.1332 28.2949C16.1332 26.8055 16.1098 26.4447 16.006 26.3427C15.9362 26.274 15.5949 26.1328 15.2477 26.0291C13.9648 25.6459 13.2611 25.147 12.8542 24.3321C12.6402 23.9035 12.613 23.7552 12.6162 23.036C12.6192 22.3776 12.658 22.1395 12.8212 21.7781C13.1938 20.9527 14.2842 20.185 15.4103 19.9551C16.0854 19.8173 16.1332 19.7417 16.1332 18.8124C16.1332 18.3769 16.1593 17.9949 16.1912 17.9636C16.223 17.9323 16.3991 17.9066 16.5824 17.9066H16.9156V18.7483ZM15.3509 21.2148C14.9176 21.3679 14.3885 21.7975 14.2256 22.1284C14.0046 22.5775 13.9931 23.2294 14.1992 23.6324C14.4987 24.2181 15.6065 24.6751 15.9614 24.3594C16.1191 24.2189 16.1332 24.0925 16.1332 22.8223C16.1332 21.5899 16.1158 21.4226 15.9742 21.2967C15.8158 21.1557 15.5987 21.1272 15.3509 21.2148ZM18.2049 22.8009C18.3001 22.9537 18.4064 23.2666 18.4409 23.4963C18.4754 23.7259 18.5766 23.9855 18.6659 24.0733C18.8561 24.2604 18.8488 24.262 18.345 24.1372L17.9588 24.0416V23.2823C17.9588 22.8647 17.9751 22.523 17.9951 22.523C18.0152 22.523 18.1095 22.648 18.2049 22.8009ZM17.0595 26.7829C16.9362 26.9168 16.9156 27.1721 16.9156 28.5649C16.9156 30.0778 16.9276 30.2013 17.0882 30.3441C17.4445 30.6613 18.7124 30.2809 19.2005 29.7106C19.5104 29.3483 19.636 28.9121 19.5941 28.3431C19.5371 27.5679 19.0911 27.0995 18.0954 26.7688C17.5411 26.5847 17.238 26.5888 17.0595 26.7829ZM18.3382 28.0006C18.7291 28.3029 18.6103 29.0253 18.1282 29.279C17.9661 29.3643 17.9588 29.3349 17.9588 28.5958C17.9588 28.171 17.9926 27.8234 18.034 27.8234C18.0753 27.8234 18.2123 27.9031 18.3382 28.0006Z" fill="url(#paint0_linear_1_1484)"/>
<defs>
<linearGradient id="paint0_linear_1_1484" x1="4.14118" y1="38.4668" x2="32.4988" y2="23.8006" gradientUnits="userSpaceOnUse">
<stop stop-color="#FDD535"/>
<stop offset="1" stop-color="#BBAC6F"/>
</linearGradient>
</defs>
</svg>
