<svg width="25" height="39" viewBox="0 0 25 39" fill="none" xmlns="http://www.w3.org/2000/svg">
<path fill-rule="evenodd" clip-rule="evenodd" d="M0.518806 0.574927C0.0772391 0.76611 0 0.988377 0 2.0673C0 3.00986 0.00597014 3.04547 0.245672 3.5294C0.38791 3.81658 0.615672 4.13121 0.786716 4.27677C1.02619 4.48057 1.08209 4.57716 1.08209 4.78733C1.08209 5.17452 1.48657 5.91536 1.86724 6.22547C2.04664 6.37162 2.35478 6.55197 2.55194 6.62631L2.91045 6.76148L2.95112 8.93905C2.99537 11.3059 3.05082 11.7218 3.47888 12.898C3.97664 14.2654 4.71769 15.4187 5.77463 16.4707C6.45888 17.1518 7.62605 17.9676 8.41216 18.3142L8.91388 18.5354L8.91567 19.4257L8.91746 20.316L8.33933 20.589C7.40082 21.0321 6.61821 21.5931 5.77575 22.4264C4.28896 23.897 3.41216 25.5615 3.06216 27.5776C2.97993 28.0511 2.94776 28.7626 2.94776 30.1068V31.9771L2.66433 32.0615C1.77485 32.3264 1.09425 33.1916 1.08537 34.0685C1.08246 34.3565 1.04567 34.4249 0.758433 34.6763C0.556045 34.8534 0.353955 35.1349 0.219254 35.4275C0.0172391 35.866 0.0035822 35.9562 0.00186579 36.8599C-0.000223767 37.9464 0.0773132 38.1636 0.535224 38.3538C0.89791 38.5045 24.1021 38.5045 24.4648 38.3538C24.922 38.1639 25 37.9462 25 36.8599C25 35.9583 24.9863 35.8665 24.7905 35.4504C24.5576 34.9553 24.3121 34.665 23.9097 34.4089C23.6914 34.27 23.6306 34.1772 23.5892 33.9197C23.473 33.1976 22.9854 32.5107 22.3833 32.2209L22.0522 32.0616V30.1524C22.0522 28.1827 21.9705 27.3535 21.6914 26.489C21.6001 26.2062 21.5121 26.0782 21.3593 26.0055C21.0917 25.8782 20.784 25.9739 20.639 26.2294C20.543 26.3987 20.5506 26.4915 20.7113 27.1138C20.8753 27.7489 20.8932 27.9869 20.918 29.8677L20.9451 31.9264L20.3979 31.9255L19.8507 31.9246L19.6067 31.4829C19.071 30.5134 18.1254 29.5557 16.9829 28.8254C16.3599 28.4272 15.0144 27.8073 14.1045 27.4994C13.3599 27.2474 13.2107 27.2217 12.5 27.2225C11.7919 27.2233 11.6373 27.2502 10.8955 27.5013C9.10866 28.1061 7.46246 29.0608 6.45888 30.074C6.02933 30.5077 5.44634 31.3066 5.25604 31.7224C5.16634 31.9183 5.14067 31.9264 4.60798 31.9264H4.05336L4.08537 29.8306C4.11366 27.9794 4.13604 27.6669 4.27754 27.1529C4.67433 25.7117 5.34664 24.4809 6.29164 23.4658C7.19634 22.4941 8.10634 21.8904 9.67918 21.2188C10.0699 21.0519 10.13 20.7692 10.0994 19.2396C10.071 17.824 10.0736 17.8304 9.4403 17.5521C8.52784 17.151 8.38298 17.0739 7.74746 16.6514C6.57724 15.8732 5.43836 14.55 4.85507 13.2909C4.19119 11.8579 4.06716 11.1347 4.06716 8.69735V6.77662H12.5H20.9328V8.69735C20.9328 11.1347 20.8088 11.8579 20.1449 13.2909C19.3319 15.046 17.6567 16.6602 15.8582 17.4217C14.8928 17.8304 14.9298 17.7606 14.9006 19.2303C14.8719 20.6777 14.9391 21.0576 15.2463 21.1852C17.0822 21.9477 18.2866 22.8254 19.2582 24.1087C19.5011 24.4295 19.745 24.6733 19.8491 24.6993C20.1204 24.767 20.4319 24.581 20.5118 24.3038C20.5732 24.0906 20.5487 24.014 20.2985 23.6361C19.5938 22.572 17.8879 21.1545 16.5865 20.5517L16.0821 20.3181L16.0841 19.4268L16.0861 18.5354L16.5878 18.3142C17.7535 17.8002 19.2277 16.625 20.0674 15.5402C20.7636 14.6407 21.4037 13.3932 21.7104 12.3378C21.9902 11.3748 22.052 10.7098 22.0522 8.65884L22.0522 6.64627L22.2948 6.54678C22.8446 6.3214 23.441 5.5741 23.5796 4.93719C23.6168 4.76612 23.7165 4.64029 23.9121 4.51751C24.2813 4.28582 24.5704 3.93706 24.8067 3.43815C24.9837 3.06446 25 2.94888 25 2.06566C25 1.2312 24.9804 1.07236 24.8542 0.887111C24.557 0.45081 25.0182 0.470618 15.1646 0.470618H6.10813L5.94582 0.64229C5.7303 0.870418 5.73492 1.21539 5.95627 1.42216L6.12903 1.58344H15.0326H23.9362L23.9048 2.23674C23.8684 2.99287 23.7132 3.32189 23.2612 3.60136L22.9851 3.77199L12.661 3.79158C5.31037 3.80553 2.24896 3.78757 2.03127 3.72926C1.64537 3.62599 1.27097 3.25824 1.16485 2.87825C1.11978 2.71696 1.08276 2.3596 1.08254 2.08421L1.08209 1.58344L2.48134 1.58107C3.97388 1.57854 4.0703 1.5574 4.20575 1.20323C4.28985 0.983407 4.14761 0.591396 3.95739 0.51884C3.70522 0.422618 0.759627 0.470618 0.518806 0.574927ZM22.3602 5.05174C22.2513 5.25272 21.962 5.49731 21.7302 5.58463C21.5856 5.63916 18.6622 5.66379 12.3435 5.66379C2.34881 5.66379 2.87 5.68568 2.46261 5.24871C2.36007 5.13861 2.27612 5.02014 2.27612 4.98527C2.27612 4.9504 6.8109 4.92191 12.3534 4.92191C21.9278 4.92191 22.4271 4.92837 22.3602 5.05174ZM5.13448 9.03943C4.90657 9.19812 4.86731 9.48367 4.95978 10.3083C5.13164 11.8408 5.65269 13.1808 6.52 14.3211C7.37739 15.4483 8.40104 16.1925 9.96022 16.8224C10.8187 17.1691 11.0074 17.4673 11.0076 18.4774C11.0077 19.2359 11.1299 19.5532 11.5222 19.8137C11.7396 19.958 11.873 19.9821 12.4551 19.982C13.2143 19.9819 13.5376 19.8696 13.7991 19.515C13.924 19.3459 13.9599 19.1545 13.9941 18.4764C14.0172 18.0192 14.0736 17.5784 14.1194 17.4968C14.2715 17.226 14.5551 17.0182 15.0398 16.8224C16.2626 16.3283 17.0503 15.8307 17.8373 15.055C19.2163 13.6956 20.0222 11.7974 20.0625 9.81388C20.0825 8.82747 20.9404 8.92807 12.5084 8.92807C6.2141 8.92807 5.27403 8.94224 5.13448 9.03943ZM18.8884 10.5271C18.7799 11.5798 18.2235 12.8836 17.4934 13.7956C16.8243 14.6315 15.8989 15.2857 14.7707 15.7203C13.3991 16.2486 12.8731 16.9577 12.8731 18.2784V18.8693H12.5087H12.1443L12.1125 18.146C12.0556 16.8509 11.5826 16.2415 10.2293 15.7203C9.10112 15.2857 8.17567 14.6315 7.50664 13.7956C6.77649 12.8836 6.22007 11.5798 6.11157 10.5271L6.06149 10.0409H12.5H18.9385L18.8884 10.5271ZM11.7537 21.9852C11.5631 22.1747 11.5563 22.5866 11.741 22.7527C12.071 23.0496 12.6493 22.7971 12.6493 22.3561C12.6493 22.2325 12.5829 22.0676 12.5 21.9852C12.4171 21.9028 12.2513 21.8368 12.1269 21.8368C12.0025 21.8368 11.8366 21.9028 11.7537 21.9852ZM12.7478 23.6314C12.2398 23.8755 12.4562 24.656 13.0319 24.656C13.2408 24.656 13.5448 24.3262 13.5448 24.0996C13.5448 23.8767 13.24 23.5409 13.0444 23.5482C12.9707 23.5509 12.8373 23.5883 12.7478 23.6314ZM11.6284 25.2635C11.2368 25.4517 11.241 26.0459 11.6352 26.2245C12.2557 26.5055 12.7293 25.5962 12.1243 25.2853C11.8784 25.1588 11.8489 25.1576 11.6284 25.2635ZM13.5999 28.5227C15.236 29.0424 16.6331 29.8078 17.5593 30.6916C17.9969 31.1094 18.5448 31.7703 18.5448 31.8807C18.5448 31.9059 15.8246 31.9264 12.5 31.9264C9.17537 31.9264 6.45522 31.9059 6.45522 31.8807C6.45522 31.7638 7.02537 31.0835 7.48351 30.6539C8.4003 29.7941 9.60843 29.1233 11.1974 28.5918C12.302 28.2224 12.6252 28.213 13.5999 28.5227ZM21.8784 33.2051C22.1112 33.3316 22.3555 33.6184 22.4482 33.8739C22.4929 33.9971 21.9803 34.0037 12.3484 34.0037C6.76761 34.0037 2.20149 33.9854 2.20149 33.9629C2.20149 33.9405 2.24866 33.832 2.30634 33.7218C2.46172 33.4249 2.75657 33.1785 3.03619 33.1119C3.17224 33.0795 7.41418 33.0582 12.4627 33.0647C21.0204 33.0755 21.6578 33.085 21.8784 33.2051ZM22.9816 35.1988C23.3588 35.3029 23.7304 35.6723 23.8351 36.0474C23.8802 36.2086 23.9172 36.566 23.9175 36.8414L23.9179 37.3422H12.5H1.08209L1.08254 36.8414C1.08306 36.2079 1.18679 35.8358 1.44119 35.5546C1.85157 35.101 1.28634 35.1233 12.4627 35.1201C19.6634 35.1181 22.7738 35.1414 22.9816 35.1988Z" fill="url(#paint0_linear_1_1492)"/>
<defs>
<linearGradient id="paint0_linear_1_1492" x1="3.13725" y1="38.4668" x2="26.7428" y2="29.2179" gradientUnits="userSpaceOnUse">
<stop stop-color="#FDD535"/>
<stop offset="1" stop-color="#BBAC6F"/>
</linearGradient>
</defs>
</svg>
