<svg width="30" height="39" viewBox="0 0 30 39" fill="none" xmlns="http://www.w3.org/2000/svg">
<path fill-rule="evenodd" clip-rule="evenodd" d="M3.94856 0.644797C3.7924 0.817028 3.78713 0.881105 3.78713 2.60634V4.38987H2.0475H0.307797L0.153936 4.59257L0 4.79526V21.4422V38.0892L0.182302 38.278L0.36453 38.4668H13.1272H25.8899L26.0514 38.2888C26.2076 38.1166 26.2129 38.0525 26.2129 36.3273V34.5437H27.9525H29.6922L29.8461 34.341L30 34.1383V20.1703V6.20234L27.2352 3.33457L24.4705 0.466797H14.2902H4.11007L3.94856 0.644797ZM23.7624 4.04718V6.55072L23.9447 6.73949L24.1269 6.92834H26.5437H28.9604V20.1976V33.4668H16.8936H4.82673V17.5053V1.54372H14.2946H23.7624V4.04718ZM28.1436 5.7931C28.1436 5.82518 27.3917 5.85141 26.4728 5.85141H24.802V4.06357V2.2758L26.4728 4.00526C27.3917 4.95649 28.1436 5.76103 28.1436 5.7931ZM3.78713 19.8273V34.1876L3.94856 34.3657L4.11007 34.5437H14.6416H25.1733V35.9668V37.3899H13.1064H1.0396V21.4283V5.4668H2.41337H3.78713V19.8273ZM15.9515 6.31364C15.1865 6.43957 14.6012 6.62749 13.8861 6.97672C11.3185 8.2308 9.76181 10.9153 9.8997 13.8514C9.99319 15.8433 10.7577 17.5182 12.2024 18.8957C13.4805 20.1146 15.1251 20.7725 16.8936 20.7725C19.8729 20.7725 22.5507 18.7885 23.5084 15.8716C24.8336 11.8351 22.5319 7.46403 18.5564 6.46734C17.8389 6.28741 16.5666 6.21234 15.9515 6.31364ZM18.2999 7.50718C19.414 7.80795 20.2088 8.26849 21.0178 9.08218C21.982 10.052 22.5411 11.1371 22.767 12.477C22.9959 13.8349 22.7935 15.1207 22.1454 16.4253C21.8711 16.9775 21.6619 17.2648 21.129 17.8207C20.7245 18.2427 20.2514 18.646 19.9381 18.836C17.5738 20.2698 14.5876 19.8792 12.671 17.8855C11.9327 17.1175 11.5161 16.4026 11.172 15.313C10.9881 14.7304 10.9649 14.5416 10.9594 13.5822C10.9525 12.3616 11.047 11.8777 11.4768 10.9352C12.3488 9.02264 14.0191 7.71618 16.0048 7.39341C16.5833 7.29941 17.7429 7.35687 18.2999 7.50718ZM15.9653 7.98118C15.5612 8.05049 14.7881 8.34041 14.2946 8.60764C13.3388 9.12503 12.2786 10.3454 11.8841 11.3823C11.4771 12.4518 11.3765 13.782 11.6238 14.821C12.1086 16.8568 13.6833 18.489 15.6312 18.975C16.3102 19.1443 17.477 19.1444 18.1539 18.9752C20.5821 18.368 22.2798 16.1181 22.2761 13.5122C22.2748 12.5301 22.1373 11.9243 21.7081 11.0077C21.4183 10.3888 21.2649 10.1736 20.6874 9.57526C20.106 8.97303 19.9059 8.82057 19.3046 8.52164C18.9179 8.32941 18.361 8.11726 18.0671 8.05018C17.5769 7.93841 16.4331 7.90087 15.9653 7.98118ZM18.1038 9.18403C19.446 9.58672 20.5559 10.6698 21.0166 12.0266C21.245 12.6989 21.2982 13.9418 21.1277 14.6206C20.735 16.1846 19.5517 17.4267 18.0074 17.8961C17.3247 18.1036 16.3035 18.0732 15.5569 17.8231C12.6545 16.8509 11.5911 13.2486 13.4589 10.7156C13.8023 10.2497 14.4984 9.67849 15.0371 9.42041C15.9864 8.96564 17.0919 8.88041 18.1038 9.18403ZM15.7155 9.70318C15.5514 9.83687 15.5198 9.92372 15.5198 10.2416V10.6206H14.9967C14.5402 10.6206 14.4502 10.6447 14.2912 10.8095C14.0685 11.0401 14.0607 11.2287 14.2628 11.4949C14.3664 11.6314 14.4877 11.6976 14.6341 11.6976H14.8515V13.5053V15.313H14.6625C14.4403 15.313 14.1089 15.627 14.1089 15.8376C14.1089 15.9184 14.1782 16.0757 14.2628 16.1872C14.4044 16.3736 14.4609 16.3899 14.9683 16.3899H15.5198V16.7745C15.5198 17.2284 15.697 17.4668 16.0342 17.4668C16.3406 17.4668 16.5594 17.158 16.5594 16.7256C16.5594 16.3932 16.562 16.3899 16.8193 16.3899C17.0766 16.3899 17.0792 16.3932 17.0792 16.7256C17.0792 17.158 17.298 17.4668 17.6044 17.4668C17.9369 17.4668 18.1188 17.2276 18.1188 16.7904V16.4218L18.4488 16.3303C19.029 16.1696 19.5199 15.5861 19.642 14.912C19.7131 14.5192 19.5136 13.8653 19.2313 13.5662L19.0013 13.3225L19.1324 13.0677C19.216 12.9054 19.2635 12.6455 19.2633 12.3514C19.263 11.6547 18.9541 11.131 18.3601 10.82C18.1327 10.7009 18.1188 10.6697 18.1188 10.2781C18.1188 9.9208 18.0914 9.84026 17.9231 9.70318C17.6662 9.4938 17.4841 9.50187 17.2615 9.73257C17.1214 9.87764 17.0792 10.0023 17.0792 10.271C17.0792 10.6193 17.0782 10.6206 16.8193 10.6206C16.5604 10.6206 16.5594 10.6193 16.5594 10.271C16.5594 10.0023 16.5172 9.87764 16.3771 9.73257C16.1545 9.50187 15.9724 9.4938 15.7155 9.70318ZM18.0503 11.9224C18.3157 12.1974 18.3278 12.4622 18.0883 12.751L17.9092 12.9668H16.9187H15.9282L15.906 12.436C15.8938 12.144 15.9011 11.8584 15.9222 11.8013C15.9517 11.7219 16.1797 11.6976 16.897 11.6976C17.8328 11.6976 17.8333 11.6976 18.0503 11.9224ZM18.4074 14.2168C18.6668 14.4399 18.6851 14.7824 18.453 15.0682L18.2541 15.313H17.0726H15.8911V14.6976V14.0822H17.071C18.0855 14.0822 18.2728 14.101 18.4074 14.2168ZM8.7678 22.9003C8.56545 23.1667 8.57347 23.355 8.79713 23.5867L8.9804 23.7766L16.9256 23.7563C25.5855 23.7342 25.028 23.7646 25.1355 23.3096C25.1678 23.1729 25.1341 23.0513 25.0236 22.9058L24.8655 22.6976H16.8936H8.92166L8.7678 22.9003ZM8.86634 26.064C8.71114 26.1716 8.61045 26.4643 8.65923 26.6658C8.76297 27.0939 8.53262 27.0822 16.8801 27.0822C22.1185 27.0822 24.6291 27.0562 24.7839 27.0003C24.925 26.9493 25.0455 26.8312 25.1029 26.6876C25.1835 26.4862 25.1764 26.4309 25.0463 26.2503L24.8973 26.0437L16.9227 26.0255C12.5366 26.0154 8.91126 26.0327 8.86634 26.064ZM8.91215 29.335C8.62745 29.4842 8.55074 29.804 8.73743 30.0631L8.8898 30.2745H16.8936H24.8973L25.0463 30.0679C25.1753 29.8889 25.1831 29.831 25.1049 29.6355C25.0553 29.5114 24.9319 29.3707 24.8306 29.323C24.5503 29.1906 9.16522 29.2023 8.91215 29.335Z" fill="url(#paint0_linear_1_1475)"/>
<defs>
<linearGradient id="paint0_linear_1_1475" x1="3.76471" y1="38.4668" x2="30.5245" y2="25.8852" gradientUnits="userSpaceOnUse">
<stop stop-color="#FDD535"/>
<stop offset="1" stop-color="#BBAC6F"/>
</linearGradient>
</defs>
</svg>
