<svg width="164" height="35" viewBox="0 0 164 35" fill="none" xmlns="http://www.w3.org/2000/svg">
<g clip-path="url(#clip0_1_55)">
<path d="M158.918 9.52734L155.117 18.7805C155.008 18.8881 155.008 19.1033 155.008 19.2109L154.899 19.426L154.79 19.2109C154.79 19.1033 154.682 18.8881 154.682 18.7805L150.88 9.52734H145.992L152.401 25.3438L149.685 31.3691H154.574L163.589 9.52734H158.918Z" fill="black"/>
<path d="M122.854 10.3878C121.985 9.74224 120.898 9.3119 119.595 9.20429C117.422 8.98911 115.358 9.74224 113.946 11.141V9.41946H109.492V25.2359H113.946V16.9511C113.946 15.122 114.272 14.584 114.598 14.1537C115.141 13.2929 116.119 12.8625 117.314 12.8625C118.508 12.8625 119.595 13.4005 120.137 14.2612C120.464 14.9068 120.572 15.7676 120.572 16.1979C120.572 17.5967 120.572 25.2359 120.572 25.2359H125.026V15.66C125.026 13.1853 124.374 11.4638 122.854 10.3878Z" fill="black"/>
<path d="M101.129 9.6349C98.9566 8.88171 96.5669 8.98933 94.3946 9.95768C92.9823 10.6032 91.6791 11.6792 90.9185 13.0779C90.1584 14.2615 89.832 15.7678 89.832 17.3817C89.832 18.9956 90.1584 20.502 90.9185 21.6855C91.6791 22.869 92.6565 23.945 93.9598 24.5906C95.2636 25.2361 96.7843 25.6665 98.1966 25.6665C98.9566 25.6665 99.7172 25.5589 100.477 25.3438C101.129 25.1285 101.781 24.9134 102.433 24.5906C103.736 23.8374 104.822 22.869 105.474 21.6855C106.235 20.502 106.561 18.9956 106.561 17.3817C106.561 13.8311 104.497 10.8184 101.129 9.6349ZM102.324 17.5969C102.215 18.9956 101.781 20.1792 100.912 20.9323C100.26 21.4703 99.2824 21.7931 98.0876 21.9007C96.8927 21.9007 96.0237 21.5779 95.2636 20.9323C94.3946 20.1792 93.9598 18.9956 93.8514 17.5969C93.743 15.983 94.3946 14.6918 95.5894 13.8311C96.2411 13.4007 97.1101 13.0779 97.9792 13.0779C98.9566 13.0779 99.7172 13.4007 100.477 13.8311C101.781 14.5843 102.433 15.983 102.324 17.5969Z" fill="black"/>
<path d="M84.6171 10.3906C83.7481 9.74504 82.6617 9.31464 81.3584 9.20703C81.141 9.20703 80.8152 9.20703 80.5978 9.20703C78.8597 9.20703 77.339 9.96021 76.0357 11.4665L75.8183 11.7893H75.3836C75.0577 11.2513 74.6235 10.821 74.1887 10.4982C73.3197 9.8526 72.2338 9.42226 70.93 9.31464C68.8661 9.09947 67.237 9.74504 65.8247 11.2513V9.63743H61.3711V25.4538H65.8247V17.1691V16.9539C65.8247 15.2324 66.0421 14.802 66.3679 14.264C66.9111 13.4032 67.8886 12.8653 68.975 12.9729C70.0609 12.9729 71.0389 13.5108 71.5821 14.3716C72.0164 15.0171 72.0164 15.7703 72.0164 16.5235V25.3463H76.47V16.8463C76.47 15.2324 76.6874 14.6944 77.0132 14.1564C77.5564 13.2957 78.5339 12.8653 79.6203 12.8653C80.7062 12.8653 81.5752 13.4032 82.1184 14.264C82.4443 14.802 82.5532 15.4475 82.5532 15.8779C82.5532 16.0931 82.5532 16.3083 82.5532 16.4159V25.2387H87.0068V15.5552C87.0068 14.6944 86.8979 13.8336 86.681 13.0804C86.2462 12.0045 85.5946 11.0362 84.6171 10.3906Z" fill="black"/>
<path d="M141.757 20.5024C141.105 21.1479 139.584 22.3314 137.52 22.4391C135.782 22.5466 134.479 22.0087 133.501 21.0403C133.067 20.6099 132.741 19.9643 132.524 19.3188H144.799V19.2112C144.907 18.5657 145.015 18.0276 145.015 17.3821C145.015 16.8441 144.907 16.0909 144.69 15.1226C144.146 13.2935 143.06 11.8947 141.648 10.8188C140.019 9.63526 138.498 9.31247 138.064 9.31247C134.913 8.77452 131.329 10.1732 129.482 13.0783C128.178 15.1226 128.287 17.1669 128.287 17.8125C128.287 18.5657 128.396 20.9327 130.351 23.0846C132.633 25.5593 135.782 25.6669 136.76 25.7745C141.105 25.8821 144.038 23.1922 144.69 22.6542L141.757 20.5024ZM134.153 13.8314C134.805 13.4011 135.565 13.0783 136.543 13.0783C137.52 13.0783 138.281 13.4011 139.041 13.8314C139.693 14.3694 140.236 15.015 140.562 15.7682H132.741C132.958 15.015 133.393 14.2618 134.153 13.8314Z" fill="black"/>
<path d="M31.1745 0.167969C21.6155 0.167969 14.0117 7.80723 14.0117 17.168C14.0117 26.6363 21.7241 34.168 31.1745 34.168C40.6249 34.168 48.3373 26.5287 48.3373 17.168C48.3373 7.80723 40.6249 0.167969 31.1745 0.167969ZM31.1745 23.4085C27.6985 23.4085 24.7657 20.5034 24.7657 17.0604C24.7657 13.6173 27.6985 10.7123 31.1745 10.7123C34.6506 10.7123 37.5834 13.6173 37.5834 17.0604C37.4748 20.611 34.6506 23.4085 31.1745 23.4085Z" fill="#8B3FFD"/>
<path d="M13.904 5.00781V29.7547H7.821L0 5.00781H13.904Z" fill="#8B3FFD"/>
</g>
<defs>
<clipPath id="clip0_1_55">
<rect width="164" height="34" fill="white" transform="translate(0 0.167969)"/>
</clipPath>
</defs>
</svg>
