<svg width="194" height="34" viewBox="0 0 194 34" fill="none" xmlns="http://www.w3.org/2000/svg">
<path d="M84.6626 22.2576V14.8452C84.6626 12.0037 82.966 10.1506 80.0575 10.1506C78.6033 10.1506 77.0279 10.6447 75.9372 12.2508C75.0889 10.8918 73.877 10.1506 72.0592 10.1506C70.8473 10.1506 69.6355 10.5212 68.666 11.8802V10.3977H66.1211V22.2576H68.666V15.7099C68.666 13.6097 69.7567 12.6214 71.4533 12.6214C73.1499 12.6214 73.9982 13.7333 73.9982 15.7099V22.2576H76.5431V15.7099C76.5431 13.6097 77.755 12.6214 79.3304 12.6214C81.027 12.6214 81.8753 13.7333 81.8753 15.7099V22.2576H84.6626ZM122.351 10.3977H118.231V6.81499H115.686V10.3977H113.384V12.7449H115.686V18.1807C115.686 20.8986 116.777 22.5047 119.685 22.5047C120.776 22.5047 121.988 22.1341 122.836 21.6399L122.109 19.4161C121.382 19.9103 120.534 20.0339 119.928 20.0339C118.716 20.0339 118.231 19.2926 118.231 18.0572V12.7449H122.351V10.3977ZM143.923 10.1506C142.468 10.1506 141.499 10.8918 140.893 11.8802V10.3977H138.348V22.2576H140.893V15.5864C140.893 13.6097 141.741 12.4979 143.317 12.4979C143.801 12.4979 144.407 12.6214 144.892 12.7449L145.619 10.2741C145.134 10.1506 144.407 10.1506 143.923 10.1506ZM111.324 11.386C110.112 10.5212 108.415 10.1506 106.597 10.1506C103.689 10.1506 101.75 11.6331 101.75 13.9803C101.75 15.957 103.204 17.0689 105.749 17.4395L106.961 17.563C108.294 17.8101 109.021 18.1807 109.021 18.7984C109.021 19.6632 108.051 20.2809 106.355 20.2809C104.658 20.2809 103.325 19.6632 102.477 19.0455L101.265 21.0222C102.598 22.0105 104.416 22.5047 106.234 22.5047C109.627 22.5047 111.566 20.8987 111.566 18.6749C111.566 16.5747 109.99 15.4628 107.567 15.0922L106.355 14.9687C105.264 14.8452 104.416 14.598 104.416 13.8568C104.416 12.992 105.264 12.4979 106.597 12.4979C108.051 12.4979 109.506 13.1156 110.233 13.4862L111.324 11.386ZM178.945 10.1506C177.491 10.1506 176.522 10.8918 175.916 11.8802V10.3977H173.371V22.2576H175.916V15.5864C175.916 13.6097 176.764 12.4979 178.339 12.4979C178.824 12.4979 179.43 12.6214 179.915 12.7449L180.642 10.2741C180.157 10.1506 179.43 10.1506 178.945 10.1506ZM146.467 16.3276C146.467 19.9103 148.891 22.5047 152.648 22.5047C154.345 22.5047 155.556 22.1341 156.768 21.1458L155.556 19.0455C154.587 19.7868 153.617 20.1574 152.527 20.1574C150.467 20.1574 149.012 18.6749 149.012 16.3276C149.012 14.1039 150.467 12.6214 152.527 12.4979C153.617 12.4979 154.587 12.8685 155.556 13.6097L156.768 11.5095C155.556 10.5212 154.345 10.1506 152.648 10.1506C148.891 10.1506 146.467 12.7449 146.467 16.3276ZM169.978 16.3276V10.3977H167.433V11.8802C166.584 10.7683 165.373 10.1506 163.797 10.1506C160.525 10.1506 157.98 12.7449 157.98 16.3276C157.98 19.9103 160.525 22.5047 163.797 22.5047C165.494 22.5047 166.706 21.887 167.433 20.7751V22.2576H169.978V16.3276ZM160.646 16.3276C160.646 14.2274 161.979 12.4979 164.161 12.4979C166.221 12.4979 167.675 14.1039 167.675 16.3276C167.675 18.4278 166.221 20.1574 164.161 20.1574C161.979 20.0339 160.646 18.4278 160.646 16.3276ZM130.229 10.1506C126.835 10.1506 124.412 12.6214 124.412 16.3276C124.412 20.0339 126.835 22.5047 130.35 22.5047C132.046 22.5047 133.743 22.0105 135.076 20.8987L133.864 19.0455C132.895 19.7868 131.683 20.2809 130.471 20.2809C128.896 20.2809 127.32 19.5397 126.957 17.4395H135.561C135.561 17.0689 135.561 16.8218 135.561 16.4512C135.682 12.6214 133.501 10.1506 130.229 10.1506ZM130.229 12.3743C131.804 12.3743 132.895 13.3626 133.137 15.2158H127.078C127.32 13.6097 128.411 12.3743 130.229 12.3743ZM193.367 16.3276V5.70312H190.822V11.8802C189.973 10.7683 188.761 10.1506 187.186 10.1506C183.914 10.1506 181.369 12.7449 181.369 16.3276C181.369 19.9103 183.914 22.5047 187.186 22.5047C188.883 22.5047 190.094 21.887 190.822 20.7751V22.2576H193.367V16.3276ZM184.035 16.3276C184.035 14.2274 185.368 12.4979 187.55 12.4979C189.61 12.4979 191.064 14.1039 191.064 16.3276C191.064 18.4278 189.61 20.1574 187.55 20.1574C185.368 20.0339 184.035 18.4278 184.035 16.3276ZM98.9625 16.3276V10.3977H96.4176V11.8802C95.5693 10.7683 94.3575 10.1506 92.782 10.1506C89.51 10.1506 86.9651 12.7449 86.9651 16.3276C86.9651 19.9103 89.51 22.5047 92.782 22.5047C94.4786 22.5047 95.6905 21.887 96.4176 20.7751V22.2576H98.9625V16.3276ZM89.51 16.3276C89.51 14.2274 90.843 12.4979 93.0244 12.4979C95.0846 12.4979 96.5388 14.1039 96.5388 16.3276C96.5388 18.4278 95.0846 20.1574 93.0244 20.1574C90.843 20.0339 89.51 18.4278 89.51 16.3276Z" fill="black"/>
<path d="M33.7281 3.74609H19.3711V30.0445H33.7281V3.74609Z" fill="#FF5F00"/>
<path d="M20.2822 16.8949C20.2822 11.5516 22.7434 6.81227 26.5264 3.74567C23.7461 1.51542 20.2366 0.167969 16.4081 0.167969C7.33805 0.167969 0 7.64861 0 16.8949C0 26.1411 7.33805 33.6218 16.4081 33.6218C20.2366 33.6218 23.7461 32.2743 26.5264 30.0441C22.7434 27.0239 20.2822 22.2382 20.2822 16.8949Z" fill="#EB001B"/>
<path d="M53.0966 16.8949C53.0966 26.1411 45.7586 33.6218 36.6886 33.6218C32.8601 33.6218 29.3506 32.2743 26.5703 30.0441C30.3989 26.9775 32.8145 22.2382 32.8145 16.8949C32.8145 11.5516 30.3533 6.81227 26.5703 3.74567C29.3506 1.51542 32.8601 0.167969 36.6886 0.167969C45.7586 0.167969 53.0966 7.69508 53.0966 16.8949Z" fill="#F79E1B"/>
</svg>
