<svg width="100" height="45" viewBox="0 0 100 45" fill="none" xmlns="http://www.w3.org/2000/svg">
<path d="M93.3061 27.8424H94.8343V30.1956H95.5835L97.0786 27.8424H98.7751L96.8245 30.7732V30.7963L99.016 33.9945H97.2469L95.6297 31.496H94.8343V33.9945H93.3061V27.8424ZM90.4875 30.1593C90.4743 29.3375 89.9462 28.8556 89.2597 28.8556C88.4742 28.8556 87.9197 29.3738 87.7778 30.1593H90.4875ZM89.296 27.6971C91.0552 27.6971 92.0189 28.9876 92.0189 30.6148C92.0189 30.8095 91.9925 31.0141 91.9694 31.2089H87.7415C87.8372 32.2815 88.6557 32.836 89.5832 32.836C90.2103 32.836 90.8473 32.5588 91.3423 32.1594L91.9463 33.2585C91.3192 33.813 90.3555 34.1397 89.4743 34.1397C87.4411 34.1397 86.1638 32.6677 86.1638 30.9184C86.1638 29.0239 87.451 27.6971 89.296 27.6971ZM79.1503 32.704C79.9094 32.5951 80.4375 31.9548 80.4375 29.7731V27.8424H84.9196V33.9945H83.3881V29.0833H81.8963V29.7731C81.8963 32.4499 81.1867 33.9945 79.1503 34.0539V32.704ZM76.896 30.1593C76.8828 29.3375 76.3548 28.8556 75.665 28.8556C74.8827 28.8556 74.3282 29.3738 74.1863 30.1593H76.896ZM75.7013 27.6971C77.4604 27.6971 78.4242 28.9876 78.4242 30.6148C78.4242 30.8095 78.4011 31.0141 78.378 31.2089H74.15C74.2457 32.2815 75.0643 32.836 75.9917 32.836C76.6188 32.836 77.2558 32.5588 77.7509 32.1594L78.3516 33.2585C77.7278 33.813 76.764 34.1397 75.8828 34.1397C73.8464 34.1397 72.5691 32.6677 72.5691 30.9184C72.5691 29.0239 73.8596 27.6971 75.7013 27.6971ZM63.1098 27.8424H64.5687V32.6908H66.4863V27.8424H67.9418V32.6908H69.8594V27.8424H71.3149V33.9945H63.1098V27.8424ZM58.5122 32.836C59.5123 32.836 60.344 32.0637 60.344 30.9184C60.344 29.7831 59.5123 29.0008 58.5122 29.0008C57.5122 29.0008 56.6937 29.7831 56.6937 30.9184C56.6937 32.0637 57.5122 32.836 58.5122 32.836ZM58.499 27.6971C60.3803 27.6971 61.8854 29.0371 61.8854 30.9184C61.8854 32.8129 60.3803 34.1397 58.5122 34.1397C56.6442 34.1397 55.1391 32.8129 55.1391 30.9184C55.1391 29.0371 56.6442 27.6971 58.499 27.6971ZM48.5117 25.4297H50.063V28.915H51.1719L53.1852 25.4297H54.8718L52.4492 29.5058V29.5322L55.017 33.9945H53.2578L51.1719 30.255H50.063V33.9945H48.5117V25.4297Z" fill="#2D3540"/>
<path d="M19.7898 39.7971C8.85855 39.7971 0 30.9254 0 19.9809C0 9.03972 8.85855 0.167969 19.7898 0.167969C30.7178 0.167969 39.5763 9.03972 39.5763 19.9809C39.5763 23.7006 38.5565 27.1793 36.7742 30.153C36.7181 30.2521 36.5729 30.2157 36.5564 30.1068C35.8765 25.2353 32.906 22.552 28.5824 21.7698C28.2061 21.7004 28.1368 21.4694 28.6319 21.4265C29.9521 21.3143 31.83 21.3341 32.7872 21.5057C32.8433 21.0073 32.8697 20.4958 32.8697 19.9809C32.8697 12.7495 27.0146 6.88449 19.7898 6.88449C12.565 6.88449 6.70662 12.7495 6.70662 19.9809C6.70662 27.2156 12.565 33.0806 19.7898 33.0806C19.9944 33.0806 20.1991 33.0839 20.4037 33.074C20.1859 31.8033 20.1166 30.5095 20.1562 29.5325C20.1892 28.7338 20.3509 28.6216 20.7107 29.2454C22.5226 32.3677 25.1201 35.216 30.1699 36.3283C34.2988 37.2392 38.4377 38.3185 42.9131 43.9755C43.3125 44.4805 42.7052 44.9822 42.2497 44.5762C37.695 40.5364 33.5793 39.2327 29.787 39.2327C25.5657 39.2327 22.6877 39.7971 19.7898 39.7971ZM29.8332 31.4666C29.4372 31.4666 29.1038 31.6053 28.8992 31.8594C28.3777 32.503 28.6121 33.6384 29.4141 34.3381C29.7639 34.645 30.2656 34.8265 30.7607 34.8265C31.2624 34.8265 31.6815 34.6384 31.9423 34.2952C32.4076 33.6714 32.1403 32.7835 31.2591 32.0409C30.8234 31.6713 30.3184 31.4666 29.8332 31.4666ZM34.2229 28.2255C33.8434 28.0803 33.543 28.1958 33.3978 28.4599C33.18 28.8559 33.3417 29.6415 33.7806 30.328C34.2229 31.0211 34.6025 31.3742 34.8995 31.3742C35.1768 31.3742 35.4507 31.0145 35.322 30.1464C35.2428 29.6283 34.9556 28.5028 34.2229 28.2255ZM57.2901 17.9313L55.696 16.0104C55.531 15.8124 55.6729 15.5054 55.9336 15.5054H59.2671C59.4255 15.0334 59.5147 14.5285 59.5147 14.0037C59.5147 11.6009 57.7291 9.5282 55.2768 9.5282C52.8245 9.5282 51.039 11.6009 51.039 14.0037C51.039 16.4064 52.8245 18.4495 55.2768 18.4495C56.0194 18.4495 56.6993 18.258 57.2901 17.9313ZM64.4984 21.1724C64.67 21.3638 64.5281 21.6707 64.2674 21.6707H60.6302C60.4817 21.6707 60.3431 21.6047 60.2474 21.4925L59.6302 20.7499C58.376 21.5651 56.8809 22.0404 55.2768 22.0404C50.8508 22.0404 47.25 18.4363 47.25 14.0037C47.25 9.5711 50.8508 5.96365 55.2768 5.96365C59.7028 5.96365 63.3036 9.5711 63.3036 14.0037C63.3036 15.6011 62.835 17.0896 62.0296 18.3438L64.4984 21.1724ZM98.0876 6.33331H95.1205C94.9026 6.33331 94.7277 6.51154 94.7277 6.72937V21.2747C94.7277 21.4925 94.9026 21.6707 95.1205 21.6707H98.0876C98.3088 21.6707 98.4837 21.4925 98.4837 21.2747V6.72937C98.4837 6.51154 98.3088 6.33331 98.0876 6.33331ZM93.094 6.33331H89.7737C89.602 6.33331 89.4469 6.44552 89.3974 6.61055L86.7702 15.2084L83.8823 6.60395C83.8295 6.44222 83.6776 6.33331 83.5093 6.33331H81.1891C81.0207 6.33331 80.8689 6.44222 80.8161 6.60395L77.9282 15.2084L75.301 6.61055C75.2515 6.44552 75.0963 6.33331 74.9214 6.33331H71.6044C71.4757 6.33331 71.3569 6.39602 71.2842 6.49833C71.2083 6.60065 71.1885 6.72937 71.2281 6.85149L76.1063 21.4034C76.1591 21.5651 76.3109 21.6707 76.4792 21.6707H79.1163C79.2847 21.6707 79.4365 21.5651 79.4893 21.4034L82.3508 12.9013L85.2091 21.4034C85.2619 21.5651 85.4137 21.6707 85.582 21.6707H88.2191C88.3875 21.6707 88.5393 21.5651 88.5921 21.4034L93.4702 6.85149C93.5098 6.72937 93.49 6.60065 93.4174 6.49833C93.3415 6.39602 93.2227 6.33331 93.094 6.33331ZM69.9706 6.72937V21.2747C69.9706 21.4925 69.7957 21.6707 69.5779 21.6707H66.6074C66.3929 21.6707 66.2147 21.4925 66.2147 21.2747V6.72937C66.2147 6.51154 66.3929 6.33331 66.6074 6.33331H69.5779C69.7957 6.33331 69.9706 6.51154 69.9706 6.72937Z" fill="#FF8C00"/>
<path d="M19.7898 39.801C8.85855 39.801 0 30.9293 0 19.9848C0 9.04362 8.85855 0.171875 19.7898 0.171875C30.7178 0.171875 39.5763 9.04362 39.5763 19.9848C39.5763 23.7045 38.5565 27.1832 36.7742 30.1569C36.7181 30.256 36.5729 30.2197 36.5564 30.1107C35.8765 25.2392 32.906 22.5559 28.5824 21.7737C28.2061 21.7044 28.1368 21.4733 28.6319 21.4304C29.9521 21.3182 31.83 21.338 32.7872 21.5096C32.8433 21.0112 32.8697 20.4997 32.8697 19.9848C32.8697 12.7534 27.0146 6.8884 19.7898 6.8884C12.565 6.8884 6.70662 12.7534 6.70662 19.9848C6.70662 27.2195 12.565 33.0845 19.7898 33.0845C19.9944 33.0845 20.1991 33.0878 20.4037 33.0779C20.1859 31.8072 20.1166 30.5134 20.1562 29.5364C20.1892 28.7377 20.3509 28.6255 20.7107 29.2493C22.5226 32.3716 25.1201 35.2199 30.1699 36.3322C34.2988 37.2431 38.4377 38.3224 42.9131 43.9795C43.3125 44.4844 42.7052 44.9861 42.2497 44.5801C37.695 40.5403 33.5793 39.2366 29.787 39.2366C25.5657 39.2366 22.6877 39.801 19.7898 39.801ZM29.8332 31.4705C29.4372 31.4705 29.1038 31.6092 28.8992 31.8633C28.3777 32.5069 28.6121 33.6423 29.4141 34.342C29.7639 34.6489 30.2656 34.8305 30.7607 34.8305C31.2624 34.8305 31.6815 34.6423 31.9423 34.2991C32.4076 33.6753 32.1403 32.7874 31.2591 32.0448C30.8234 31.6752 30.3184 31.4705 29.8332 31.4705ZM34.2229 28.2294C33.8434 28.0842 33.543 28.1997 33.3978 28.4638C33.18 28.8598 33.3417 29.6454 33.7806 30.3319C34.2229 31.025 34.6025 31.3781 34.8995 31.3781C35.1768 31.3781 35.4507 31.0184 35.322 30.1503C35.2428 29.6322 34.9556 28.5067 34.2229 28.2294ZM57.2901 17.9352L55.696 16.0143C55.531 15.8163 55.6729 15.5093 55.9336 15.5093H59.2671C59.4255 15.0373 59.5147 14.5324 59.5147 14.0076C59.5147 11.6048 57.7291 9.5321 55.2768 9.5321C52.8245 9.5321 51.039 11.6048 51.039 14.0076C51.039 16.4103 52.8245 18.4534 55.2768 18.4534C56.0194 18.4534 56.6993 18.2619 57.2901 17.9352ZM64.4984 21.1763C64.67 21.3677 64.5281 21.6747 64.2674 21.6747H60.6302C60.4817 21.6747 60.3431 21.6086 60.2474 21.4964L59.6302 20.7538C58.376 21.569 56.8809 22.0443 55.2768 22.0443C50.8508 22.0443 47.25 18.4402 47.25 14.0076C47.25 9.57501 50.8508 5.96756 55.2768 5.96756C59.7028 5.96756 63.3036 9.57501 63.3036 14.0076C63.3036 15.605 62.835 17.0936 62.0296 18.3477L64.4984 21.1763ZM98.0876 6.33721H95.1205C94.9026 6.33721 94.7277 6.51544 94.7277 6.73327V21.2786C94.7277 21.4964 94.9026 21.6747 95.1205 21.6747H98.0876C98.3088 21.6747 98.4837 21.4964 98.4837 21.2786V6.73327C98.4837 6.51544 98.3088 6.33721 98.0876 6.33721ZM93.094 6.33721H89.7737C89.602 6.33721 89.4469 6.44943 89.3974 6.61446L86.7702 15.2123L83.8823 6.60786C83.8295 6.44613 83.6776 6.33721 83.5093 6.33721H81.1891C81.0207 6.33721 80.8689 6.44613 80.8161 6.60786L77.9282 15.2123L75.301 6.61446C75.2515 6.44943 75.0963 6.33721 74.9214 6.33721H71.6044C71.4757 6.33721 71.3569 6.39992 71.2842 6.50224C71.2083 6.60455 71.1885 6.73327 71.2281 6.85539L76.1063 21.4073C76.1591 21.569 76.3109 21.6747 76.4792 21.6747H79.1163C79.2847 21.6747 79.4365 21.569 79.4893 21.4073L82.3508 12.9052L85.2091 21.4073C85.2619 21.569 85.4137 21.6747 85.582 21.6747H88.2191C88.3875 21.6747 88.5393 21.569 88.5921 21.4073L93.4702 6.85539C93.5098 6.73327 93.49 6.60455 93.4174 6.50224C93.3415 6.39992 93.2227 6.33721 93.094 6.33721ZM69.9706 6.73327V21.2786C69.9706 21.4964 69.7957 21.6747 69.5779 21.6747H66.6074C66.3929 21.6747 66.2147 21.4964 66.2147 21.2786V6.73327C66.2147 6.51544 66.3929 6.33721 66.6074 6.33721H69.5779C69.7957 6.33721 69.9706 6.51544 69.9706 6.73327Z" fill="#FF8C00"/>
</svg>
