<svg width="217" height="35" viewBox="0 0 217 35" fill="none" xmlns="http://www.w3.org/2000/svg">
<g clip-path="url(#clip0_1_63)">
<path d="M29.8724 6.71484C30.6645 7.74974 31.3352 8.87407 31.8706 10.0653L16.6804 21.3802L10.332 17.3589V12.5212L16.6804 16.5424L29.8724 6.71484Z" fill="#21A038"/>
<path d="M3.85255 17.0173C3.85255 16.8002 3.85778 16.5846 3.86826 16.3702L0.0209531 16.1797C0.00785813 16.4576 4.64929e-06 16.7381 4.64929e-06 17.0212C-0.00163227 19.2335 0.428992 21.4242 1.26719 23.4678C2.10538 25.5116 3.33463 27.3679 4.88443 28.9303L7.61342 26.174C6.42044 24.9734 5.47404 23.5464 4.82862 21.9749C4.1832 20.4035 3.85149 18.7187 3.85255 17.0173Z" fill="url(#paint0_linear_1_63)"/>
<path d="M16.6749 4.05827C16.8896 4.05827 17.103 4.06622 17.3151 4.0768L17.5077 0.187829C17.2319 0.174597 16.9542 0.167981 16.6749 0.167981C14.4845 0.165282 12.3154 0.599795 10.2917 1.44657C8.26812 2.29334 6.42996 3.5357 4.88281 5.10231L7.6118 7.85992C8.80002 6.65403 10.2124 5.69736 11.7678 5.04494C13.3232 4.39252 14.9908 4.0572 16.6749 4.05827Z" fill="url(#paint1_linear_1_63)"/>
<path d="M16.6779 29.9761C16.4631 29.9761 16.2496 29.9761 16.0363 29.9588L15.8438 33.8465C16.1205 33.8606 16.3985 33.8677 16.6779 33.8677C18.8673 33.87 21.0354 33.4352 23.058 32.5882C25.0805 31.7412 26.9175 30.4986 28.4634 28.932L25.7397 26.1758C24.5512 27.381 23.139 28.3372 21.5839 28.9893C20.0289 29.6415 18.3616 29.9769 16.6779 29.9761Z" fill="url(#paint2_linear_1_63)"/>
<path d="M23.9056 6.32101L27.1479 3.90611C24.1844 1.48124 20.4852 0.161238 16.6719 0.167995V4.05961C19.2541 4.05637 21.7763 4.84491 23.9056 6.32101Z" fill="url(#paint3_linear_1_63)"/>
<path d="M33.3531 17.0196C33.3551 16.0072 33.2675 14.9966 33.0911 14L29.5018 16.6729C29.5018 16.7881 29.5018 16.9032 29.5018 17.0196C29.5027 18.8302 29.1271 20.6207 28.3995 22.2752C27.6717 23.9296 26.608 25.4111 25.2773 26.6236L27.8663 29.5149C29.5962 27.9368 30.9786 26.009 31.9237 23.8565C32.869 21.7039 33.3559 19.3746 33.3531 17.0196Z" fill="#21A038"/>
<path d="M16.6781 29.9758C14.8862 29.9764 13.1141 29.5967 11.4766 28.8614C9.83918 28.1261 8.37279 27.0514 7.17244 25.707L4.3125 28.3217C5.87402 30.0701 7.78176 31.4671 9.91202 32.4225C12.0423 33.3778 14.3474 33.8701 16.6781 33.8673V29.9758Z" fill="url(#paint4_linear_1_63)"/>
<path d="M8.077 7.41469L5.48943 4.52344C3.75902 6.10122 2.37613 8.02892 1.43044 10.1815C0.48477 12.3341 -0.00257824 14.6635 1.02575e-05 17.0187H3.85256C3.85176 15.2082 4.22741 13.4177 4.95513 11.7632C5.68287 10.1088 6.74646 8.62727 8.077 7.41469Z" fill="url(#paint5_linear_1_63)"/>
<mask id="mask0_1_63" style="mask-type:luminance" maskUnits="userSpaceOnUse" x="42" y="6" width="175" height="23">
<path d="M216.36 6.03125H42.332V28.3071H216.36V6.03125Z" fill="white"/>
</mask>
<g mask="url(#mask0_1_63)">
<path d="M96.2366 9.80878L101.008 6.29688H85.0391V27.4004H101.008V23.8885H89.5956V18.4828H99.3309V14.9709H89.5956V9.80878H96.2366Z" fill="#21A038"/>
<path d="M74.2933 14.5145H68.7492V9.80383H77.5973L82.3659 6.28125H64.1953V27.3847H73.7068C79.0395 27.3847 82.0999 24.9701 82.0999 20.7591C82.0999 16.7305 79.3279 14.5145 74.2933 14.5145ZM73.5017 23.8717H68.7492V18.0242H73.5017C76.386 18.0242 77.7383 19.0042 77.7383 20.948C77.7383 22.8918 76.2994 23.8717 73.5017 23.8717Z" fill="#21A038"/>
<path d="M112.747 6.29297H104.055V27.3964H108.611V21.4181H112.747C118.293 21.4181 121.724 18.5027 121.724 13.8443C121.724 9.18601 118.293 6.29297 112.747 6.29297ZM112.651 17.9036H108.611V9.80755H112.651C115.568 9.80755 117.178 11.2461 117.178 13.8572C117.178 16.4683 115.568 17.9036 112.651 17.9036Z" fill="#21A038"/>
<path d="M57.3586 22.4154C56.1817 23.0521 54.863 23.3818 53.5248 23.374C49.5191 23.374 46.6133 20.517 46.6133 16.583C46.6133 12.6489 49.5191 9.78579 53.5248 9.78579C54.9693 9.76128 56.3838 10.1989 57.5617 11.0347L60.7487 8.68987L60.5331 8.53688C58.6741 6.90393 56.19 6.03906 53.3467 6.03906C50.2627 6.03906 47.4663 7.07565 45.4697 8.96151C44.4602 9.93251 43.6618 11.101 43.1242 12.394C42.5866 13.687 42.3214 15.0768 42.3452 16.4768C42.3238 17.891 42.5879 19.295 43.1215 20.605C43.6551 21.915 44.4473 23.1041 45.451 24.1014C47.4569 26.0622 50.2471 27.1425 53.3092 27.1425C56.5087 27.1425 59.3052 26.0278 61.1987 23.9984L58.346 21.8753L57.3586 22.4154Z" fill="#21A038"/>
<path d="M139.79 14.5145H134.248V9.80383H146.158V6.28125H129.691V27.3847H139.191C144.523 27.3847 147.584 24.9701 147.584 20.7591C147.596 16.7305 144.825 14.5145 139.79 14.5145ZM138.999 23.8717H134.248V18.0242H138.999C141.883 18.0242 143.234 19.0042 143.234 20.948C143.234 22.8918 141.808 23.8717 138.999 23.8717Z" fill="#21A038"/>
<path d="M199.381 27.3574H194.762V6.25391H199.381V15.1175H201.895L208.684 6.25391H213.919L205.866 16.2931L215.217 27.3574H209.088L202.215 19.0576H199.381V27.3574Z" fill="#21A038"/>
<path d="M164.363 23.3452H154.592L152.935 27.4433H148.02L157.184 6.33984H162.099L171.115 27.4433H166.019L164.363 23.3452ZM162.832 19.5215L159.506 11.3253L156.161 19.5215H162.832Z" fill="#21A038"/>
<path d="M177.333 6.33984V15.1523H186.891V6.33984H191.654V27.4433H186.891V19.1278H177.333V27.4433H172.57V6.33984H177.333Z" fill="#21A038"/>
</g>
</g>
<defs>
<linearGradient id="paint0_linear_1_63" x1="5.66359" y1="28.4447" x2="1.37579" y2="16.1782" gradientUnits="userSpaceOnUse">
<stop offset="0.14" stop-color="#F1E813"/>
<stop offset="0.3" stop-color="#E6E418"/>
<stop offset="0.58" stop-color="#C9DA26"/>
<stop offset="0.89" stop-color="#A2CC39"/>
</linearGradient>
<linearGradient id="paint1_linear_1_63" x1="5.98279" y1="5.79039" x2="16.8525" y2="1.69105" gradientUnits="userSpaceOnUse">
<stop offset="0.06" stop-color="#0FA7DF"/>
<stop offset="0.54" stop-color="#0098F8"/>
<stop offset="0.92" stop-color="#0290EA"/>
</linearGradient>
<linearGradient id="paint2_linear_1_63" x1="15.5898" y1="31.5189" x2="27.8615" y2="28.7754" gradientUnits="userSpaceOnUse">
<stop offset="0.12" stop-color="#A2CC39"/>
<stop offset="0.28" stop-color="#86C239"/>
<stop offset="0.87" stop-color="#219F38"/>
</linearGradient>
<linearGradient id="paint3_linear_1_63" x1="15.8705" y1="1.47137" x2="26.3706" y2="4.67803" gradientUnits="userSpaceOnUse">
<stop offset="0.06" stop-color="#0290EA"/>
<stop offset="0.79" stop-color="#0C89CA"/>
</linearGradient>
<linearGradient id="paint4_linear_1_63" x1="5.2789" y1="27.848" x2="16.7162" y2="32.0782" gradientUnits="userSpaceOnUse">
<stop offset="0.13" stop-color="#F1E813"/>
<stop offset="0.3" stop-color="#EAE616"/>
<stop offset="0.53" stop-color="#D8DF1F"/>
<stop offset="0.8" stop-color="#BAD52D"/>
<stop offset="0.98" stop-color="#A2CC39"/>
</linearGradient>
<linearGradient id="paint5_linear_1_63" x1="1.43522" y1="17.4897" x2="6.09842" y2="5.48493" gradientUnits="userSpaceOnUse">
<stop offset="0.07" stop-color="#A2CC39"/>
<stop offset="0.26" stop-color="#81C45E"/>
<stop offset="0.92" stop-color="#0FA7DF"/>
</linearGradient>
<clipPath id="clip0_1_63">
<rect width="217" height="34" fill="white" transform="translate(0 0.167969)"/>
</clipPath>
</defs>
</svg>
