<svg width="16" height="13" viewBox="0 0 16 13" fill="none" xmlns="http://www.w3.org/2000/svg">
<path fill-rule="evenodd" clip-rule="evenodd" d="M14.9223 0.0706188C13.8573 0.452807 0.731433 5.37187 0.538104 5.46128C-0.104314 5.7583 -0.179417 6.15062 0.355383 6.41599C0.407017 6.4416 1.29546 6.71875 2.3297 7.03189L4.21017 7.6012L8.48012 4.99557C10.8286 3.56246 12.7974 2.37382 12.8552 2.3542C13.0002 2.30487 13.125 2.30947 13.1832 2.36631C13.224 2.40609 13.2257 2.42605 13.1933 2.48451C13.1718 2.52319 11.6123 3.90475 9.72768 5.55463C7.84305 7.20451 6.29601 8.56732 6.28979 8.58314C6.28359 8.59892 6.21985 9.42264 6.14812 10.4136L6.01775 12.2154L6.15942 12.1967C6.23734 12.1865 6.36073 12.1473 6.43361 12.1096C6.50652 12.0719 6.99717 11.6383 7.52399 11.1461C8.05078 10.6539 8.50005 10.2443 8.52237 10.236C8.54465 10.2276 9.38358 10.8073 10.3867 11.5242C11.3897 12.241 12.289 12.863 12.385 12.9063C12.637 13.0199 12.9209 13.0311 13.1052 12.9349C13.2699 12.849 13.4308 12.6355 13.4985 12.4131C13.5247 12.3271 14.0981 9.74243 14.7729 6.66942C15.8962 1.55303 15.9996 1.05768 16 0.792137C16.0004 0.541242 15.9897 0.481563 15.9208 0.349507C15.8722 0.256402 15.7893 0.161343 15.7083 0.105785C15.5231 -0.0212652 15.2166 -0.0349715 14.9223 0.0706188Z" fill="white"/>
</svg>
