<svg width="88" height="29" viewBox="0 0 88 29" fill="none" xmlns="http://www.w3.org/2000/svg">
<path d="M37.9355 28.5848H31.168L35.4009 0.167969H42.168L37.9355 28.5848Z" fill="#00579F"/>
<path d="M64.1681 1.33911C62.7215 0.782514 60.4271 0.167969 57.5901 0.167969C50.3474 0.167969 45.2473 3.91358 45.216 9.26868C45.1558 13.2197 48.8676 15.4141 51.6436 16.7315C54.4811 18.0777 55.4456 18.9563 55.4456 20.1562C55.4168 21.9991 53.1528 22.8486 51.0413 22.8486C48.1132 22.8486 46.5443 22.4106 44.16 21.3853L43.1943 20.9458L42.168 27.1208C43.8881 27.8808 47.0572 28.5553 50.3474 28.5848C58.0428 28.5848 63.0528 24.8972 63.1122 19.1905C63.1414 16.059 61.1815 13.6596 56.956 11.6989C54.3909 10.4402 52.8199 9.59151 52.8199 8.30369C52.85 7.13294 54.1486 5.9338 57.0442 5.9338C59.4285 5.87507 61.1803 6.43088 62.5074 6.98708L63.1707 7.27919L64.1681 1.33911Z" fill="#00579F"/>
<path d="M73.3988 18.518C73.9879 16.8855 76.2546 10.5671 76.2546 10.5671C76.2249 10.6278 76.8425 8.90442 77.1957 7.84647L77.6956 10.2951C77.6956 10.2951 79.0502 17.0972 79.3443 18.518C78.2264 18.518 74.8117 18.518 73.3988 18.518ZM82.2283 0.167969H76.6954C74.9892 0.167969 73.693 0.681476 72.9568 2.52576L62.332 28.5848H69.8374C69.8374 28.5848 71.0731 25.0775 71.3386 24.3221C72.162 24.3221 79.4632 24.3221 80.5224 24.3221C80.7278 25.3198 81.3759 28.5848 81.3759 28.5848H87.9989L82.2283 0.167969Z" fill="#00579F"/>
<path d="M25.3023 0.167969L18.1742 19.5661L17.3952 15.632C16.0774 11.0924 11.9443 6.16033 7.33203 3.70796L13.8612 28.5848H21.5581L32.9989 0.167969H25.3023Z" fill="#00579F"/>
<path d="M11.6605 0.167969H0.118083L0 0.747145C9.00381 3.12586 14.9668 8.85966 17.4168 15.7514L14.9076 2.57749C14.4945 0.746739 13.225 0.228359 11.6605 0.167969Z" fill="#00579F"/>
</svg>
